<svg xmlns="http://www.w3.org/2000/svg" xmlns:xlink="http://www.w3.org/1999/xlink" fill="none" version="1.1" width="274" height="265.54315185546875" viewBox="0 0 274 265.54315185546875"><defs><filter id="master_svg0_1_22945" filterUnits="userSpaceOnUse" color-interpolation-filters="sRGB" x="-20.758913040161133" y="0" width="267.63020515441895" height="264.5966272354126"><feFlood flood-opacity="0" result="BackgroundImageFix"/><feBlend mode="normal" in="SourceGraphic" in2="BackgroundImageFix" result="shape"/><feGaussianBlur in="BackgroundImage" stdDeviation="10.379456520080566"/><feComposite in2="SourceAlpha" operator="in" result="effect1_foregroundBlur"/><feBlend mode="normal" in="SourceGraphic" in2="effect1_foregroundBlur" result="shape"/></filter><filter id="master_svg1_1_22947" filterUnits="userSpaceOnUse" color-interpolation-filters="sRGB" x="26.78960418701172" y="23.398515701293945" width="267.96931648254395" height="264.92879581451416"><feFlood flood-opacity="0" result="BackgroundImageFix"/><feBlend mode="normal" in="SourceGraphic" in2="BackgroundImageFix" result="shape"/><feGaussianBlur in="BackgroundImage" stdDeviation="10.379456520080566"/><feComposite in2="SourceAlpha" operator="in" result="effect1_foregroundBlur"/><feBlend mode="normal" in="SourceGraphic" in2="effect1_foregroundBlur" result="shape"/></filter><linearGradient x1="0" y1="0.14584580063819885" x2="1.0244438648223877" y2="1.0185296535491943" id="master_svg2_1_3265"><stop offset="0%" stop-color="#EA6E91" stop-opacity="1"/><stop offset="99.99995231628418%" stop-color="#E92E63" stop-opacity="1"/></linearGradient></defs><g style="mix-blend-mode:passthrough"><g><g style="mix-blend-mode:passthrough"><g><g filter="url(#master_svg0_1_22945)" style="mix-blend-mode:passthrough"><path d="M246.8712921142578,172.954C246.8712921142578,197.057,246.9200802142578,209.38,251.6749821142578,218.554C255.76771211425782,226.449,262.2344921142578,232.916,270.1301921142578,237.009C279.30329211425783,241.764,291.6272921142578,241.812,315.7300921142578,241.812L424.8832921142578,241.812C448.9862921142578,241.812,461.3102921142578,241.764,470.4832921142578,237.009C478.37929211425785,232.916,484.84629211425784,226.449,488.9392921142578,218.554C493.6942921142578,209.38,493.7422921142578,197.057,493.7422921142578,172.954L493.7422921142578,25.6002C493.7422921142578,17.4189,493.7192921142578,13.1876,492.0022921142578,11.1406C490.5742921142578,9.43841,488.4332921142578,8.42176,486.21129211425784,8.3917C483.5392921142578,8.35555,480.2472921142578,11.0129,473.90829211425785,16.1855L452.41629211425777,33.7237C447.86029211425785,37.4418,445.5692921142578,39.3094,443.0222921142578,40.6306C440.7722921142578,41.7979,438.3732921142578,42.6526,435.8912921142578,43.1709C433.0832921142578,43.7574,430.1272921142578,43.7589,424.2462921142578,43.7589L315.7300921142578,43.7589C291.6272921142578,43.7589,279.30329211425783,43.8077,270.1301921142578,48.5626C262.2344921142578,52.6554,255.76771211425782,59.1222,251.6749821142578,67.0178C246.9200821142578,76.191,246.8712921142578,88.5149,246.8712921142578,112.618L246.8712921142578,172.954Z" transform="matrix(-1,0,0,1,493.7425842285156,0)" fill="#E92E63" fill-opacity="1"/></g><g filter="url(#master_svg1_1_22947)" style="mix-blend-mode:passthrough"><path d="M26.78960418701172,136.07651570129394L26.78960418701172,196.68451570129395C26.78960418701172,220.78751570129396,26.838392287011718,233.11151570129394,31.59329418701172,242.28451570129394C35.68602418701172,250.17951570129395,42.15280418701172,256.64651570129394,50.048504187011716,260.73951570129395C59.22160418701172,265.49451570129395,71.54560418701172,265.5435157012939,95.64840418701172,265.5435157012939L205.14160418701172,265.5435157012939C229.24360418701173,265.5435157012939,241.5676041870117,265.49451570129395,250.74160418701172,260.73951570129395C258.6366041870117,256.64651570129394,265.1036041870117,250.17951570129395,269.19660418701176,242.28451570129394C273.95160418701175,233.11151570129394,273.99960418701176,220.78751570129396,273.99960418701176,196.68451570129395L273.99960418701176,48.998715701293946C273.99960418701176,40.817415701293946,273.97660418701173,36.58611570129395,272.25960418701175,34.539115701293944C270.83160418701175,32.83692570129394,268.69060418701173,31.820275701293944,266.4686041870117,31.790215701293945C263.79760418701176,31.754065701293946,260.50460418701175,34.41151570129394,254.16560418701172,39.58401570129395L232.60060418701173,57.182315701293945C228.0436041870117,60.900415701293944,225.7526041870117,62.76801570129395,223.20660418701172,64.08921570129394C220.95560418701172,65.25651570129395,218.55660418701171,66.11121570129394,216.07560418701172,66.62951570129394C213.26660418701172,67.21611570129394,210.3106041870117,67.21761570129394,204.4306041870117,67.21761570129394L95.64840418701172,67.21761570129394C71.54560418701172,67.21761570129394,59.22160418701172,67.26641570129394,50.048504187011716,72.02121570129395C42.15280418701172,76.11401570129394,35.68602418701172,82.58081570129394,31.59329418701172,90.47651570129395C26.83839608701172,99.64961570129394,26.78960418701172,111.97351570129395,26.78960418701172,136.07651570129394Z" fill="#E92E63" fill-opacity="0.699999988079071"/><path d="M254.6456041870117,40.17241570129394L233.08060418701172,57.770715701293945Q229.0856041870117,61.03091570129394,227.60560418701172,62.14191570129395Q225.36360418701173,63.825715701293944,223.5556041870117,64.76341570129395Q220.0726041870117,66.57061570129395,216.23060418701172,67.37291570129395Q214.23760418701173,67.78921570129395,211.4356041870117,67.90231570129394Q209.5856041870117,67.97701570129394,204.4306041870117,67.97701570129394L95.64840418701172,67.97701570129394Q84.52080418701172,67.97711570129394,79.65780418701172,68.05881570129395Q72.19180418701171,68.18441570129394,67.31320418701172,68.59311570129395Q61.80880418701172,69.05431570129394,57.83020418701172,70.00341570129395Q53.68270418701172,70.99291570129395,50.39800418701172,72.69551570129394Q44.580604187011716,75.71091570129394,39.93180418701172,80.35981570129394Q35.28300418701172,85.00861570129395,32.26756418701172,90.82601570129394Q30.56495418701172,94.11061570129395,29.575484187011718,98.25811570129395Q28.62631418701172,102.23671570129395,28.165184187011718,107.74121570129394Q27.75649118701172,112.61971570129394,27.63088818701172,120.08571570129395Q27.54907718701172,124.94851570129394,27.54907718701172,136.07651570129394L27.549076187011718,196.68451570129395Q27.54907718701172,207.81151570129396,27.63088718701172,212.67451570129396Q27.75648818701172,220.14051570129394,28.165184187011718,225.01951570129395Q28.62630418701172,230.52351570129395,29.575484187011718,234.50251570129396Q30.56495418701172,238.65051570129395,32.26756418701172,241.93451570129395Q35.28295418701172,247.75251570129396,39.93180418701172,252.40051570129395Q44.58070418701172,257.04951570129396,50.39800418701172,260.065515701294Q53.68280418701172,261.767515701294,57.83020418701172,262.757515701294Q61.80890418701172,263.70651570129394,67.31320418701172,264.16751570129395Q72.19220418701173,264.57651570129394,79.65780418701172,264.70151570129394Q84.52240418701172,264.78351570129394,95.64840418701172,264.78351570129394L205.14160418701172,264.78351570129394Q216.26760418701173,264.78351570129394,221.13160418701173,264.70151570129394Q228.5976041870117,264.57651570129394,233.47660418701173,264.16751570129395Q238.98060418701172,263.70651570129394,242.9596041870117,262.757515701294Q247.10660418701173,261.767515701294,250.39160418701172,260.065515701294Q256.2086041870117,257.04951570129396,260.8576041870117,252.40051570129395Q265.5066041870117,247.75151570129395,268.5216041870117,241.93451570129395Q270.2246041870117,238.64951570129395,271.21460418701173,234.50251570129396Q272.16360418701174,230.52351570129395,272.62460418701176,225.01951570129395Q273.03360418701175,220.14051570129394,273.15860418701175,212.67451570129396Q273.24060418701174,207.81051570129395,273.24060418701174,196.68451570129395L273.24060418701174,48.998715701293946Q273.24060418701174,41.90161570129395,273.0176041870117,39.53991570129395Q272.7076041870117,36.254915701293946,271.67760418701175,35.027115701293944Q270.7136041870117,33.877515701293945,269.33660418701174,33.22371570129395Q267.9586041870117,32.56992570129395,266.4586041870117,32.549615701293945Q264.8566041870117,32.52793570129394,262.11560418701174,34.364715701293946Q260.14460418701174,35.685115701293945,254.6456041870117,40.17241570129394ZM253.6856041870117,38.99561570129394Q259.2396041870117,34.46301570129395,261.26960418701174,33.10294570129395Q264.40360418701175,31.002725701293947,266.4786041870117,31.030815701293946Q268.3106041870117,31.055605701293945,269.9876041870117,31.851505701293945Q271.6646041870117,32.647435701293944,272.84160418701174,34.05101570129395Q274.1756041870117,35.641215701293945,274.5296041870117,39.397215701293945Q274.75960418701175,41.83011570129395,274.75960418701175,48.998715701293946L274.75960418701175,196.68451570129395Q274.75960418701175,207.82351570129396,274.67760418701175,212.70051570129394Q274.5506041870117,220.21651570129396,274.13760418701173,225.14651570129394Q273.6676041870117,230.76451570129396,272.6916041870117,234.85551570129394Q271.65860418701175,239.18351570129394,269.87060418701174,242.63351570129396Q266.7466041870117,248.65951570129394,261.9316041870117,253.47451570129394Q257.1166041870117,258.29051570129394,251.0906041870117,261.41351570129393Q247.64060418701172,263.2025157012939,243.3116041870117,264.23451570129396Q239.2216041870117,265.21051570129396,233.6036041870117,265.68151570129396Q228.6736041870117,266.094515701294,221.1576041870117,266.22051570129395Q216.27960418701173,266.30251570129394,205.14160418701172,266.30251570129394L95.64840418701172,266.30251570129394Q84.50960418701172,266.30251570129394,79.63220418701172,266.22051570129395Q72.11610418701173,266.094515701294,67.18640418701172,265.68151570129396Q61.56790418701172,265.21051570129396,57.47770418701172,264.23451570129396Q53.14920418701172,263.2025157012939,49.699004187011724,261.41351570129393Q43.67290418701172,258.2895157012939,38.857804187011716,253.47451570129394Q34.04264418701172,248.65951570129394,30.91902418701172,242.63351570129396Q29.13069418701172,239.18351570129394,28.098004187011718,234.85551570129394Q27.122231187011717,230.76451570129396,26.651539187011718,225.14651570129394Q26.23861118701172,220.21751570129393,26.112157187011718,212.70051570129394Q26.03013118701172,207.82451570129393,26.03013218701172,196.68451570129395L26.03013218701172,136.07651570129394Q26.03013218701172,124.93551570129395,26.11215818701172,120.06021570129394Q26.23861418701172,112.54351570129394,26.65154018701172,107.61441570129395Q27.12223418701172,101.99571570129395,28.098004187011718,97.90571570129394Q29.13070418701172,93.57701570129394,30.91901418701172,90.12691570129394Q34.04267418701172,84.10081570129395,38.857804187011716,79.28571570129395Q43.67280418701172,74.47061570129395,49.699004187011724,71.34701570129394Q53.14900418701172,69.55861570129395,57.47770418701172,68.52601570129394Q61.56780418701172,67.55021570129395,67.18640418701172,67.07951570129394Q72.11550418701171,66.66661570129395,79.63220418701172,66.54011570129394Q84.50790418701172,66.45811570129395,95.64840418701172,66.45811570129395L204.4306041870117,66.45811570129395Q209.5556041870117,66.45811570129395,211.37460418701173,66.38461570129394Q214.05060418701171,66.27661570129395,215.9196041870117,65.88601570129394Q219.55760418701172,65.12631570129395,222.85660418701173,63.415015701293946Q224.55160418701172,62.53541570129394,226.69360418701172,60.92731570129394Q228.14860418701173,59.834515701293945,232.11960418701173,56.593915701293945L253.6856041870117,38.99561570129394Z" fill="url(#master_svg2_1_3265)" fill-opacity="1"/></g></g></g><g style="mix-blend-mode:passthrough"><path d="M162.9844,170.6Q165.375,173.2875,166.6875,176.8187Q168,180.35,168,184.4281Q168,188.6937,166.625,191.6781Q165.25,194.64690000000002,162.9844,196.1312Q160.7188,197.6,158.0625,197.6Q155.6719,197.6,153.75,196.35Q151.8438,195.1,150.7812,192.5687Q149.7031,195.1,147.8438,196.35Q145.9844,197.6,143.6562,197.6Q141.07812,197.6,138.875,196.1312Q136.67188,194.64690000000002,135.32812,191.6781Q134,188.6937,134,184.4281Q134,180.35,135.29688,176.8187Q136.59375,173.2875,138.98438,170.6L143.6875,170.6Q141.10938,173.5375,139.79688,177.0844Q138.5,180.6156,138.5,184.4437Q138.5,188.70940000000002,139.98438,191.1312Q141.46875,193.5375,143.8906,193.5375Q145.9688,193.5375,147.2344,191.6312Q148.5,189.725,148.5,184.7875L148.5,177.9125L153,177.9125L153,184.7875Q153,189.725,154.3125,191.6312Q155.6406,193.5375,157.8438,193.5375Q160.3906,193.5375,161.9375,191.1312Q163.5,188.70940000000002,163.5,184.4437Q163.5,180.6156,162.125,177.0844Q160.75,173.5375,158.0469,170.6L162.9844,170.6Z" fill="#FFFFFF" fill-opacity="1"/></g><g style="mix-blend-mode:passthrough"><path d="M75.27418,172.3915L94.5016,163.19573Q93.9667,163.45158,93.65090000000001,163.97748Q93.36449999999999,164.4545,93.36449999999999,165Q93.36449999999999,165.5455,93.65090000000001,166.0225Q93.9667,166.54840000000002,94.5016,166.8043L75.27418,157.60854L78.72582,150.39146L97.9533,159.58719Q99.5876,160.36882,100.5096,161.90448Q101.36449999999999,163.32837,101.36449999999999,165Q101.36449999999999,166.6716,100.5096,168.0955Q99.5876,169.6312,97.9533,170.4128L78.72582,179.6085L75.27418,172.3915ZM81,176Q81,176.19650000000001,80.98074,176.3921Q80.96148,176.5876,80.92314,176.7804Q80.8848,176.9731,80.82776,177.1611Q80.77072,177.3492,80.69552,177.5307Q80.62032,177.7123,80.52768,177.8856Q80.43505,178.0589,80.32588,178.2223Q80.2167,178.38569999999999,80.09204,178.5376Q79.96738,178.6895,79.82843,178.8284Q79.68948,178.9674,79.53757,179.09199999999998Q79.38567,179.2167,79.22228,179.3259Q79.05889,179.435,78.88559,179.5277Q78.71228,179.6203,78.53073,179.6955Q78.34918,179.7707,78.16114,179.8278Q77.973093,179.88479999999998,77.780361,179.9231Q77.58763,179.9615,77.392069,179.9807Q77.196507,180,77,180Q76.803493,180,76.607931,179.9807Q76.41237,179.9615,76.219639,179.9231Q76.026907,179.88479999999998,75.83886,179.8278Q75.65082,179.7707,75.46927,179.6955Q75.28772,179.6203,75.11441,179.5277Q74.94111,179.435,74.77772,179.3259Q74.61433,179.2167,74.46243,179.09199999999998Q74.31052,178.9674,74.17157,178.8284Q74.03262,178.6895,73.90796,178.5376Q73.7833,178.38569999999999,73.67412,178.2223Q73.56495,178.0589,73.47232,177.8856Q73.37968,177.7123,73.30448,177.5307Q73.22928,177.3492,73.17224,177.1611Q73.1152,176.9731,73.07686,176.7804Q73.03852,176.5876,73.01926,176.3921Q73,176.19650000000001,73,176Q73,175.80349999999999,73.01926,175.6079Q73.03852,175.4124,73.07686,175.2196Q73.1152,175.0269,73.17224,174.8389Q73.22928,174.6508,73.30448,174.4693Q73.37968,174.2877,73.47232,174.1144Q73.56495,173.9411,73.67412,173.7777Q73.7833,173.61430000000001,73.90796,173.4624Q74.03262,173.3105,74.17157,173.1716Q74.31052,173.0326,74.46243,172.90800000000002Q74.61433,172.7833,74.77772,172.6741Q74.94111,172.5649,75.11441,172.4723Q75.28772,172.3797,75.46927,172.3045Q75.65082,172.2293,75.83886,172.1722Q76.026907,172.11520000000002,76.219639,172.0769Q76.41237,172.0385,76.607931,172.0193Q76.803493,172,77,172Q77.196507,172,77.392069,172.0193Q77.58763,172.0385,77.780361,172.0769Q77.973093,172.11520000000002,78.16114,172.1722Q78.34918,172.2293,78.53073,172.3045Q78.71228,172.3797,78.88559,172.4723Q79.05889,172.5649,79.22228,172.6741Q79.38567,172.7833,79.53757,172.90800000000002Q79.68948,173.0326,79.82843,173.1716Q79.96738,173.3105,80.09204,173.4624Q80.2167,173.61430000000001,80.32588,173.7777Q80.43505,173.9411,80.52768,174.1144Q80.62032,174.2877,80.69552,174.4693Q80.77072,174.6508,80.82776,174.8389Q80.8848,175.0269,80.92314,175.2196Q80.96148,175.4124,80.98074,175.6079Q81,175.80349999999999,81,176ZM81,154Q81,154.196507,80.98074,154.392069Q80.96148,154.58763,80.92314,154.780361Q80.8848,154.973093,80.82776,155.16114Q80.77072,155.34918,80.69552,155.53073Q80.62032,155.71228,80.52768,155.88559Q80.43505,156.05889,80.32588,156.22228Q80.2167,156.38567,80.09204,156.53757Q79.96738,156.68948,79.82843,156.82843Q79.68948,156.96738,79.53757,157.09204Q79.38567,157.2167,79.22228,157.32588Q79.05889,157.43505,78.88559,157.52768Q78.71228,157.62032,78.53073,157.69552Q78.34918,157.77072,78.16114,157.82776Q77.973093,157.8848,77.780361,157.92314Q77.58763,157.96148,77.392069,157.98074Q77.196507,158,77,158Q76.803493,158,76.607931,157.98074Q76.41237,157.96148,76.219639,157.92314Q76.026907,157.8848,75.83886,157.82776Q75.65082,157.77072,75.46927,157.69552Q75.28772,157.62032,75.11441,157.52768Q74.94111,157.43505,74.77772,157.32588Q74.61433,157.2167,74.46243,157.09204Q74.31052,156.96738,74.17157,156.82843Q74.03262,156.68948,73.90796,156.53757Q73.7833,156.38567,73.67412,156.22228Q73.56495,156.05889,73.47232,155.88559Q73.37968,155.71228,73.30448,155.53073Q73.22928,155.34918,73.17224,155.16114Q73.1152,154.973093,73.07686,154.780361Q73.03852,154.58763,73.01926,154.392069Q73,154.196507,73,154Q73,153.803493,73.01926,153.607931Q73.03852,153.41237,73.07686,153.219639Q73.1152,153.026907,73.17224,152.83886Q73.22928,152.65082,73.30448,152.46927Q73.37968,152.28772,73.47232,152.11441Q73.56495,151.94111,73.67412,151.77772Q73.7833,151.61433,73.90796,151.46243Q74.03262,151.31052,74.17157,151.17157Q74.31052,151.03262,74.46243,150.90796Q74.61433,150.7833,74.77772,150.67412Q74.94111,150.56495,75.11441,150.47232Q75.28772,150.37968,75.46927,150.30448Q75.65082,150.22928,75.83886,150.17224Q76.026907,150.1152,76.219639,150.07686Q76.41237,150.03852,76.607931,150.01926Q76.803493,150,77,150Q77.196507,150,77.392069,150.01926Q77.58763,150.03852,77.780361,150.07686Q77.973093,150.1152,78.16114,150.17224Q78.34918,150.22928,78.53073,150.30448Q78.71228,150.37968,78.88559,150.47232Q79.05889,150.56495,79.22228,150.67412Q79.38567,150.7833,79.53757,150.90796Q79.68948,151.03262,79.82843,151.17157Q79.96738,151.31052,80.09204,151.46243Q80.2167,151.61433,80.32588,151.77772Q80.43505,151.94111,80.52768,152.11441Q80.62032,152.28772,80.69552,152.46927Q80.77072,152.65082,80.82776,152.83886Q80.8848,153.026907,80.92314,153.219639Q80.96148,153.41237,80.98074,153.607931Q81,153.803493,81,154Z" fill="#FFFFFF" fill-opacity="1"/></g><g style="mix-blend-mode:passthrough"><path d="M223.27418,172.3915L242.5016,163.19573Q241.9667,163.45158,241.6509,163.97748Q241.3645,164.4545,241.3645,165Q241.3645,165.5455,241.6509,166.0225Q241.9667,166.54840000000002,242.5016,166.8043L223.27418,157.60854L226.72582,150.39146L245.9533,159.58719Q247.5876,160.36882,248.5096,161.90448Q249.3645,163.32837,249.3645,165Q249.3645,166.6716,248.5096,168.0955Q247.5876,169.6312,245.9533,170.4128L226.72582,179.6085L223.27418,172.3915ZM229,176Q229,176.19650000000001,228.98074,176.3921Q228.96148,176.5876,228.92314,176.7804Q228.8848,176.9731,228.82776,177.1611Q228.77072,177.3492,228.69552,177.5307Q228.62032,177.7123,228.52768,177.8856Q228.43505,178.0589,228.32588,178.2223Q228.2167,178.38569999999999,228.09204,178.5376Q227.96738,178.6895,227.82843,178.8284Q227.68948,178.9674,227.53757,179.09199999999998Q227.38567,179.2167,227.22228,179.3259Q227.05889,179.435,226.88559,179.5277Q226.71228,179.6203,226.53073,179.6955Q226.34918,179.7707,226.16114,179.8278Q225.973093,179.88479999999998,225.780361,179.9231Q225.58763,179.9615,225.392069,179.9807Q225.196507,180,225,180Q224.803493,180,224.607931,179.9807Q224.41237,179.9615,224.219639,179.9231Q224.026907,179.88479999999998,223.83886,179.8278Q223.65082,179.7707,223.46927,179.6955Q223.28772,179.6203,223.11441,179.5277Q222.94111,179.435,222.77772,179.3259Q222.61433,179.2167,222.46243,179.09199999999998Q222.31052,178.9674,222.17157,178.8284Q222.03262,178.6895,221.90796,178.5376Q221.7833,178.38569999999999,221.67412,178.2223Q221.56495,178.0589,221.47232,177.8856Q221.37968,177.7123,221.30448,177.5307Q221.22928,177.3492,221.17224,177.1611Q221.1152,176.9731,221.07686,176.7804Q221.03852,176.5876,221.01926,176.3921Q221,176.19650000000001,221,176Q221,175.80349999999999,221.01926,175.6079Q221.03852,175.4124,221.07686,175.2196Q221.1152,175.0269,221.17224,174.8389Q221.22928,174.6508,221.30448,174.4693Q221.37968,174.2877,221.47232,174.1144Q221.56495,173.9411,221.67412,173.7777Q221.7833,173.61430000000001,221.90796,173.4624Q222.03262,173.3105,222.17157,173.1716Q222.31052,173.0326,222.46243,172.90800000000002Q222.61433,172.7833,222.77772,172.6741Q222.94111,172.5649,223.11441,172.4723Q223.28772,172.3797,223.46927,172.3045Q223.65082,172.2293,223.83886,172.1722Q224.026907,172.11520000000002,224.219639,172.0769Q224.41237,172.0385,224.607931,172.0193Q224.803493,172,225,172Q225.196507,172,225.392069,172.0193Q225.58763,172.0385,225.780361,172.0769Q225.973093,172.11520000000002,226.16114,172.1722Q226.34918,172.2293,226.53073,172.3045Q226.71228,172.3797,226.88559,172.4723Q227.05889,172.5649,227.22228,172.6741Q227.38567,172.7833,227.53757,172.90800000000002Q227.68948,173.0326,227.82843,173.1716Q227.96738,173.3105,228.09204,173.4624Q228.2167,173.61430000000001,228.32588,173.7777Q228.43505,173.9411,228.52768,174.1144Q228.62032,174.2877,228.69552,174.4693Q228.77072,174.6508,228.82776,174.8389Q228.8848,175.0269,228.92314,175.2196Q228.96148,175.4124,228.98074,175.6079Q229,175.80349999999999,229,176ZM229,154Q229,154.196507,228.98074,154.392069Q228.96148,154.58763,228.92314,154.780361Q228.8848,154.973093,228.82776,155.16114Q228.77072,155.34918,228.69552,155.53073Q228.62032,155.71228,228.52768,155.88559Q228.43505,156.05889,228.32588,156.22228Q228.2167,156.38567,228.09204,156.53757Q227.96738,156.68948,227.82843,156.82843Q227.68948,156.96738,227.53757,157.09204Q227.38567,157.2167,227.22228,157.32588Q227.05889,157.43505,226.88559,157.52768Q226.71228,157.62032,226.53073,157.69552Q226.34918,157.77072,226.16114,157.82776Q225.973093,157.8848,225.780361,157.92314Q225.58763,157.96148,225.392069,157.98074Q225.196507,158,225,158Q224.803493,158,224.607931,157.98074Q224.41237,157.96148,224.219639,157.92314Q224.026907,157.8848,223.83886,157.82776Q223.65082,157.77072,223.46927,157.69552Q223.28772,157.62032,223.11441,157.52768Q222.94111,157.43505,222.77772,157.32588Q222.61433,157.2167,222.46243,157.09204Q222.31052,156.96738,222.17157,156.82843Q222.03262,156.68948,221.90796,156.53757Q221.7833,156.38567,221.67412,156.22228Q221.56495,156.05889,221.47232,155.88559Q221.37968,155.71228,221.30448,155.53073Q221.22928,155.34918,221.17224,155.16114Q221.1152,154.973093,221.07686,154.780361Q221.03852,154.58763,221.01926,154.392069Q221,154.196507,221,154Q221,153.803493,221.01926,153.607931Q221.03852,153.41237,221.07686,153.219639Q221.1152,153.026907,221.17224,152.83886Q221.22928,152.65082,221.30448,152.46927Q221.37968,152.28772,221.47232,152.11441Q221.56495,151.94111,221.67412,151.77772Q221.7833,151.61433,221.90796,151.46243Q222.03262,151.31052,222.17157,151.17157Q222.31052,151.03262,222.46243,150.90796Q222.61433,150.7833,222.77772,150.67412Q222.94111,150.56495,223.11441,150.47232Q223.28772,150.37968,223.46927,150.30448Q223.65082,150.22928,223.83886,150.17224Q224.026907,150.1152,224.219639,150.07686Q224.41237,150.03852,224.607931,150.01926Q224.803493,150,225,150Q225.196507,150,225.392069,150.01926Q225.58763,150.03852,225.780361,150.07686Q225.973093,150.1152,226.16114,150.17224Q226.34918,150.22928,226.53073,150.30448Q226.71228,150.37968,226.88559,150.47232Q227.05889,150.56495,227.22228,150.67412Q227.38567,150.7833,227.53757,150.90796Q227.68948,151.03262,227.82843,151.17157Q227.96738,151.31052,228.09204,151.46243Q228.2167,151.61433,228.32588,151.77772Q228.43505,151.94111,228.52768,152.11441Q228.62032,152.28772,228.69552,152.46927Q228.77072,152.65082,228.82776,152.83886Q228.8848,153.026907,228.92314,153.219639Q228.96148,153.41237,228.98074,153.607931Q229,153.803493,229,154Z" transform="matrix(-1,0,0,1,450,0)" fill="#FFFFFF" fill-opacity="1"/></g></g></g></svg>