<svg xmlns="http://www.w3.org/2000/svg" xmlns:xlink="http://www.w3.org/1999/xlink" fill="none" version="1.1" width="808" height="783.0615234375" viewBox="0 0 808 783.0615234375"><defs><filter id="master_svg0_1_16774" filterUnits="userSpaceOnUse" color-interpolation-filters="sRGB" x="-61.216064453125" y="0" width="789.216064453125" height="780.2703337669373"><feFlood flood-opacity="0" result="BackgroundImageFix"/><feBlend mode="normal" in="SourceGraphic" in2="BackgroundImageFix" result="shape"/><feGaussianBlur in="BackgroundImage" stdDeviation="30.6080322265625"/><feComposite in2="SourceAlpha" operator="in" result="effect1_foregroundBlur"/><feBlend mode="normal" in="SourceGraphic" in2="effect1_foregroundBlur" result="shape"/></filter><filter id="master_svg1_1_16775" filterUnits="userSpaceOnUse" color-interpolation-filters="sRGB" x="79" y="69" width="790.216064453125" height="781.2498869895935"><feFlood flood-opacity="0" result="BackgroundImageFix"/><feBlend mode="normal" in="SourceGraphic" in2="BackgroundImageFix" result="shape"/><feGaussianBlur in="BackgroundImage" stdDeviation="30.6080322265625"/><feComposite in2="SourceAlpha" operator="in" result="effect1_foregroundBlur"/><feBlend mode="normal" in="SourceGraphic" in2="effect1_foregroundBlur" result="shape"/></filter><linearGradient x1="0" y1="0.14584580063819885" x2="1.0244438648223877" y2="1.0185296535491943" id="master_svg2_1_3265"><stop offset="0%" stop-color="#EA6E91" stop-opacity="1"/><stop offset="99.99995231628418%" stop-color="#E92E63" stop-opacity="1"/></linearGradient></defs><g style="mix-blend-mode:passthrough"><g><g filter="url(#master_svg0_1_16774)" style="mix-blend-mode:passthrough"><path d="M728,510.024C728,581.101,728.143867,617.443,742.1656,644.494C754.2347,667.777,773.3046,686.847,796.5883,698.916C823.639,712.938,859.981,713.082,931.058,713.082L1252.942,713.082C1324.019,713.082,1360.3609999999999,712.938,1387.412,698.916C1410.6950000000002,686.847,1429.7649999999999,667.777,1441.8339999999998,644.494C1455.856,617.443,1456,581.101,1456,510.024L1456,75.4926C1456,51.3666,1455.932,38.889,1450.8690000000001,32.8524C1446.658,27.833,1440.342,24.835,1433.7910000000002,24.7463C1425.913,24.6397,1416.203,32.4761,1397.511,47.7296L1334.133,99.448C1320.6970000000001,110.412,1313.941,115.92,1306.431,119.816C1299.795,123.258,1292.72,125.779,1285.403,127.307C1277.121,129.037,1268.404,129.041,1251.062,129.041L931.058,129.041C859.981,129.041,823.639,129.185,796.5883,143.207C773.3046,155.276,754.2347,174.346,742.1656,197.629C728.143882,224.68,728,261.022,728,332.099L728,510.024Z" transform="matrix(-1,0,0,1,1456,0)" fill="#E92E63" fill-opacity="1"/></g><g filter="url(#master_svg1_1_16775)" style="mix-blend-mode:passthrough"><path d="M79,580.0029999999999C79,651.08,79.143896,687.422,93.1656,714.473C105.2347,737.757,124.3046,756.827,147.5883,768.896C174.63909999999998,782.918,210.981,783.062,282.058,783.062L604.942,783.062C676.019,783.062,712.361,782.918,739.412,768.896C762.695,756.827,781.765,737.757,793.834,714.473C807.856,687.422,808,651.08,808,580.0029999999999L808,144.49259999999998C808,120.3666,807.932,107.88900000000001,802.869,101.8524C798.658,96.833,792.342,93.83500000000001,785.791,93.7463C777.913,93.6397,768.203,101.4762,749.511,116.7296L685.916,168.6252C672.48,179.59,665.724,185.09699999999998,658.214,188.993C651.578,192.435,644.503,194.95600000000002,637.186,196.48399999999998C628.904,198.214,620.187,198.218,602.845,198.218L282.058,198.218C210.981,198.218,174.639,198.362,147.5883,212.384C124.3046,224.453,105.2347,243.523,93.1656,266.807C79.143882,293.85699999999997,79,330.199,79,401.276L79,580.0029999999999Z" fill="#E92E63" fill-opacity="0.699999988079071"/><path d="M750.927,118.4648L687.332,170.36Q675.554,179.971,671.187,183.251Q664.575,188.216,659.245,190.981Q648.972,196.31,637.643,198.676Q631.766,199.904,623.503,200.238Q618.049,200.458,602.845,200.458L282.058,200.458Q249.243,200.458,234.903,200.699Q212.886,201.069,198.5,202.275Q182.268,203.635,170.5358,206.434Q158.30509999999998,209.351,148.6189,214.372Q131.4639,223.265,117.7551,236.973Q104.0463,250.682,95.154,267.837Q90.1331,277.523,87.21529,289.754Q84.41626,301.48699999999997,83.05645,317.719Q81.85125,332.105,81.48087,354.122Q81.23961,368.462,81.23961,401.276L81.23961,580.0029999999999Q81.23961,612.817,81.48087,627.158Q81.85125,649.175,83.05646,663.561Q84.41626,679.793,87.2153,691.526Q90.1332,703.757,95.154,713.443Q104.0467,730.598,117.7551,744.306Q131.465,758.016,148.6189,766.908Q158.3056,771.928,170.5358,774.846Q182.269,777.645,198.5,779.005Q212.891,780.21,234.903,780.581Q249.25,780.822,282.058,780.822L604.942,780.822Q637.75,780.821,652.097,780.581Q674.109,780.21,688.5,779.005Q704.731,777.646,716.464,774.846Q728.695,771.928,738.381,766.908Q755.536,758.016,769.245,744.306Q782.954,730.597,791.846,713.443Q796.867,703.756,799.785,691.526Q802.584,679.793,803.943,663.561Q805.149,649.171,805.519,627.158Q805.76,612.811,805.76,580.0029999999999L805.76,144.49259999999998Q805.76,133.4097,805.671,128.5419Q805.536,121.1856,805.104,116.5993Q804.625,111.52459999999999,803.661,108.3123Q802.714,105.1531,801.153,103.2918Q798.309,99.9016,794.247,97.9736Q790.185,96.04560000000001,785.761,95.98570000000001Q783.332,95.9529,780.285,97.2163Q777.187,98.501,772.953,101.33840000000001Q769.126,103.9029,763.341,108.4493Q759.51,111.4602,750.927,118.4648ZM748.095,114.9944Q756.712,107.9625,760.573,104.9276Q766.491,100.2764,770.459,97.6175Q775.062,94.5332,778.569,93.0787Q782.469,91.4616,785.821,91.5069Q791.223,91.58,796.168,93.9271Q801.113,96.2741,804.585,100.4131Q806.739,102.98179999999999,807.952,107.0256Q809.043,110.6631,809.563,116.17869999999999Q810.011,120.9339,810.15,128.4597Q810.24,133.3674,810.24,144.49259999999998L810.24,580.0029999999999Q810.24,612.85,809.998,627.234Q809.625,649.395,808.407,663.935Q807.019,680.503,804.142,692.565Q801.096,705.33,795.823,715.504Q786.612,733.274,772.412,747.474Q758.212,761.673,740.442,770.884Q730.268,776.158,717.504,779.203Q705.441,782.081,688.874,783.469Q674.334,784.687,652.172,785.059Q637.789,785.301,604.942,785.301L282.058,785.301Q249.211,785.301,234.828,785.059Q212.666,784.687,198.126,783.469Q181.559,782.081,169.49630000000002,779.203Q156.7321,776.158,146.55759999999998,770.884Q128.7881,761.674,114.5878,747.474Q100.3891,733.275,91.1773,715.504Q85.90371,705.33,82.85835,692.565Q79.980884,680.504,78.592869,663.935Q77.37518,649.399,77.00228,627.234Q76.76039,612.855,76.76039,580.0029999999999L76.76039,401.276Q76.76039,368.424,77.00228,354.046Q77.37518,331.88,78.592864,317.345Q79.980883,300.776,82.85834,288.71500000000003Q85.90364,275.95,91.1773,265.776Q100.3886,248.005,114.5878,233.806Q128.7869,219.607,146.55759999999998,210.396Q156.73160000000001,205.122,169.49630000000002,202.077Q181.558,199.199,198.126,197.811Q212.661,196.594,234.828,196.221Q249.206,195.97899999999998,282.058,195.97899999999998L602.845,195.97899999999998Q617.958,195.97899999999998,623.323,195.762Q631.214,195.44299999999998,636.728,194.292Q647.455,192.051,657.182,187.005Q662.183,184.411,668.498,179.66899999999998Q672.792,176.44400000000002,684.5,166.89010000000002L748.095,114.9944Z" fill="url(#master_svg2_1_3265)" fill-opacity="1"/></g><g style="mix-blend-mode:passthrough"><ellipse cx="246" cy="484" rx="60" ry="60" fill="#FFFFFF" fill-opacity="1"/></g><g style="mix-blend-mode:passthrough"><ellipse cx="643" cy="484" rx="60" ry="60" fill="#FFFFFF" fill-opacity="1"/></g><g style="mix-blend-mode:passthrough"><ellipse cx="443.5" cy="506.5" rx="36.5" ry="36.5" fill="#FFFFFF" fill-opacity="1"/></g></g></g></svg>