<svg xmlns="http://www.w3.org/2000/svg" xmlns:xlink="http://www.w3.org/1999/xlink" fill="none" version="1.1" width="274" height="265.54315185546875" viewBox="0 0 274 265.54315185546875"><defs><filter id="master_svg0_1_22792" filterUnits="userSpaceOnUse" color-interpolation-filters="sRGB" x="-20.758913040161133" y="0" width="267.63020515441895" height="264.5966272354126"><feFlood flood-opacity="0" result="BackgroundImageFix"/><feBlend mode="normal" in="SourceGraphic" in2="BackgroundImageFix" result="shape"/><feGaussianBlur in="BackgroundImage" stdDeviation="10.379456520080566"/><feComposite in2="SourceAlpha" operator="in" result="effect1_foregroundBlur"/><feBlend mode="normal" in="SourceGraphic" in2="effect1_foregroundBlur" result="shape"/></filter><filter id="master_svg1_1_22794" filterUnits="userSpaceOnUse" color-interpolation-filters="sRGB" x="26.78960418701172" y="23.398515701293945" width="267.96931648254395" height="264.92879581451416"><feFlood flood-opacity="0" result="BackgroundImageFix"/><feBlend mode="normal" in="SourceGraphic" in2="BackgroundImageFix" result="shape"/><feGaussianBlur in="BackgroundImage" stdDeviation="10.379456520080566"/><feComposite in2="SourceAlpha" operator="in" result="effect1_foregroundBlur"/><feBlend mode="normal" in="SourceGraphic" in2="effect1_foregroundBlur" result="shape"/></filter><linearGradient x1="0" y1="0.14584580063819885" x2="1.0244438648223877" y2="1.0185296535491943" id="master_svg2_1_3265"><stop offset="0%" stop-color="#EA6E91" stop-opacity="1"/><stop offset="99.99995231628418%" stop-color="#E92E63" stop-opacity="1"/></linearGradient></defs><g style="mix-blend-mode:passthrough"><g><g style="mix-blend-mode:passthrough"><g><g filter="url(#master_svg0_1_22792)" style="mix-blend-mode:passthrough"><path d="M246.8712921142578,172.954C246.8712921142578,197.057,246.9200802142578,209.38,251.6749821142578,218.554C255.76771211425782,226.449,262.2344921142578,232.916,270.1301921142578,237.009C279.30329211425783,241.764,291.6272921142578,241.812,315.7300921142578,241.812L424.8832921142578,241.812C448.9862921142578,241.812,461.3102921142578,241.764,470.4832921142578,237.009C478.37929211425785,232.916,484.84629211425784,226.449,488.9392921142578,218.554C493.6942921142578,209.38,493.7422921142578,197.057,493.7422921142578,172.954L493.7422921142578,25.6002C493.7422921142578,17.4189,493.7192921142578,13.1876,492.0022921142578,11.1406C490.5742921142578,9.43841,488.4332921142578,8.42176,486.21129211425784,8.3917C483.5392921142578,8.35555,480.2472921142578,11.0129,473.90829211425785,16.1855L452.41629211425777,33.7237C447.86029211425785,37.4418,445.5692921142578,39.3094,443.0222921142578,40.6306C440.7722921142578,41.7979,438.3732921142578,42.6526,435.8912921142578,43.1709C433.0832921142578,43.7574,430.1272921142578,43.7589,424.2462921142578,43.7589L315.7300921142578,43.7589C291.6272921142578,43.7589,279.30329211425783,43.8077,270.1301921142578,48.5626C262.2344921142578,52.6554,255.76771211425782,59.1222,251.6749821142578,67.0178C246.9200821142578,76.191,246.8712921142578,88.5149,246.8712921142578,112.618L246.8712921142578,172.954Z" transform="matrix(-1,0,0,1,493.7425842285156,0)" fill="#E92E63" fill-opacity="1"/></g><g filter="url(#master_svg1_1_22794)" style="mix-blend-mode:passthrough"><path d="M26.78960418701172,136.07651570129394L26.78960418701172,196.68451570129395C26.78960418701172,220.78751570129396,26.838392287011718,233.11151570129394,31.59329418701172,242.28451570129394C35.68602418701172,250.17951570129395,42.15280418701172,256.64651570129394,50.048504187011716,260.73951570129395C59.22160418701172,265.49451570129395,71.54560418701172,265.5435157012939,95.64840418701172,265.5435157012939L205.14160418701172,265.5435157012939C229.24360418701173,265.5435157012939,241.5676041870117,265.49451570129395,250.74160418701172,260.73951570129395C258.6366041870117,256.64651570129394,265.1036041870117,250.17951570129395,269.19660418701176,242.28451570129394C273.95160418701175,233.11151570129394,273.99960418701176,220.78751570129396,273.99960418701176,196.68451570129395L273.99960418701176,48.998715701293946C273.99960418701176,40.817415701293946,273.97660418701173,36.58611570129395,272.25960418701175,34.539115701293944C270.83160418701175,32.83692570129394,268.69060418701173,31.820275701293944,266.4686041870117,31.790215701293945C263.79760418701176,31.754065701293946,260.50460418701175,34.41151570129394,254.16560418701172,39.58401570129395L232.60060418701173,57.182315701293945C228.0436041870117,60.900415701293944,225.7526041870117,62.76801570129395,223.20660418701172,64.08921570129394C220.95560418701172,65.25651570129395,218.55660418701171,66.11121570129394,216.07560418701172,66.62951570129394C213.26660418701172,67.21611570129394,210.3106041870117,67.21761570129394,204.4306041870117,67.21761570129394L95.64840418701172,67.21761570129394C71.54560418701172,67.21761570129394,59.22160418701172,67.26641570129394,50.048504187011716,72.02121570129395C42.15280418701172,76.11401570129394,35.68602418701172,82.58081570129394,31.59329418701172,90.47651570129395C26.83839608701172,99.64961570129394,26.78960418701172,111.97351570129395,26.78960418701172,136.07651570129394Z" fill="#E92E63" fill-opacity="0.699999988079071"/><path d="M254.6456041870117,40.17241570129394L233.08060418701172,57.770715701293945Q229.0856041870117,61.03091570129394,227.60560418701172,62.14191570129395Q225.36360418701173,63.825715701293944,223.5556041870117,64.76341570129395Q220.0726041870117,66.57061570129395,216.23060418701172,67.37291570129395Q214.23760418701173,67.78921570129395,211.4356041870117,67.90231570129394Q209.5856041870117,67.97701570129394,204.4306041870117,67.97701570129394L95.64840418701172,67.97701570129394Q84.52080418701172,67.97711570129394,79.65780418701172,68.05881570129395Q72.19180418701171,68.18441570129394,67.31320418701172,68.59311570129395Q61.80880418701172,69.05431570129394,57.83020418701172,70.00341570129395Q53.68270418701172,70.99291570129395,50.39800418701172,72.69551570129394Q44.580604187011716,75.71091570129394,39.93180418701172,80.35981570129394Q35.28300418701172,85.00861570129395,32.26756418701172,90.82601570129394Q30.56495418701172,94.11061570129395,29.575484187011718,98.25811570129395Q28.62631418701172,102.23671570129395,28.165184187011718,107.74121570129394Q27.75649118701172,112.61971570129394,27.63088818701172,120.08571570129395Q27.54907718701172,124.94851570129394,27.54907718701172,136.07651570129394L27.549076187011718,196.68451570129395Q27.54907718701172,207.81151570129396,27.63088718701172,212.67451570129396Q27.75648818701172,220.14051570129394,28.165184187011718,225.01951570129395Q28.62630418701172,230.52351570129395,29.575484187011718,234.50251570129396Q30.56495418701172,238.65051570129395,32.26756418701172,241.93451570129395Q35.28295418701172,247.75251570129396,39.93180418701172,252.40051570129395Q44.58070418701172,257.04951570129396,50.39800418701172,260.065515701294Q53.68280418701172,261.767515701294,57.83020418701172,262.757515701294Q61.80890418701172,263.70651570129394,67.31320418701172,264.16751570129395Q72.19220418701173,264.57651570129394,79.65780418701172,264.70151570129394Q84.52240418701172,264.78351570129394,95.64840418701172,264.78351570129394L205.14160418701172,264.78351570129394Q216.26760418701173,264.78351570129394,221.13160418701173,264.70151570129394Q228.5976041870117,264.57651570129394,233.47660418701173,264.16751570129395Q238.98060418701172,263.70651570129394,242.9596041870117,262.757515701294Q247.10660418701173,261.767515701294,250.39160418701172,260.065515701294Q256.2086041870117,257.04951570129396,260.8576041870117,252.40051570129395Q265.5066041870117,247.75151570129395,268.5216041870117,241.93451570129395Q270.2246041870117,238.64951570129395,271.21460418701173,234.50251570129396Q272.16360418701174,230.52351570129395,272.62460418701176,225.01951570129395Q273.03360418701175,220.14051570129394,273.15860418701175,212.67451570129396Q273.24060418701174,207.81051570129395,273.24060418701174,196.68451570129395L273.24060418701174,48.998715701293946Q273.24060418701174,41.90161570129395,273.0176041870117,39.53991570129395Q272.7076041870117,36.254915701293946,271.67760418701175,35.027115701293944Q270.7136041870117,33.877515701293945,269.33660418701174,33.22371570129395Q267.9586041870117,32.56992570129395,266.4586041870117,32.549615701293945Q264.8566041870117,32.52793570129394,262.11560418701174,34.364715701293946Q260.14460418701174,35.685115701293945,254.6456041870117,40.17241570129394ZM253.6856041870117,38.99561570129394Q259.2396041870117,34.46301570129395,261.26960418701174,33.10294570129395Q264.40360418701175,31.002725701293947,266.4786041870117,31.030815701293946Q268.3106041870117,31.055605701293945,269.9876041870117,31.851505701293945Q271.6646041870117,32.647435701293944,272.84160418701174,34.05101570129395Q274.1756041870117,35.641215701293945,274.5296041870117,39.397215701293945Q274.75960418701175,41.83011570129395,274.75960418701175,48.998715701293946L274.75960418701175,196.68451570129395Q274.75960418701175,207.82351570129396,274.67760418701175,212.70051570129394Q274.5506041870117,220.21651570129396,274.13760418701173,225.14651570129394Q273.6676041870117,230.76451570129396,272.6916041870117,234.85551570129394Q271.65860418701175,239.18351570129394,269.87060418701174,242.63351570129396Q266.7466041870117,248.65951570129394,261.9316041870117,253.47451570129394Q257.1166041870117,258.29051570129394,251.0906041870117,261.41351570129393Q247.64060418701172,263.2025157012939,243.3116041870117,264.23451570129396Q239.2216041870117,265.21051570129396,233.6036041870117,265.68151570129396Q228.6736041870117,266.094515701294,221.1576041870117,266.22051570129395Q216.27960418701173,266.30251570129394,205.14160418701172,266.30251570129394L95.64840418701172,266.30251570129394Q84.50960418701172,266.30251570129394,79.63220418701172,266.22051570129395Q72.11610418701173,266.094515701294,67.18640418701172,265.68151570129396Q61.56790418701172,265.21051570129396,57.47770418701172,264.23451570129396Q53.14920418701172,263.2025157012939,49.699004187011724,261.41351570129393Q43.67290418701172,258.2895157012939,38.857804187011716,253.47451570129394Q34.04264418701172,248.65951570129394,30.91902418701172,242.63351570129396Q29.13069418701172,239.18351570129394,28.098004187011718,234.85551570129394Q27.122231187011717,230.76451570129396,26.651539187011718,225.14651570129394Q26.23861118701172,220.21751570129393,26.112157187011718,212.70051570129394Q26.03013118701172,207.82451570129393,26.03013218701172,196.68451570129395L26.03013218701172,136.07651570129394Q26.03013218701172,124.93551570129395,26.11215818701172,120.06021570129394Q26.23861418701172,112.54351570129394,26.65154018701172,107.61441570129395Q27.12223418701172,101.99571570129395,28.098004187011718,97.90571570129394Q29.13070418701172,93.57701570129394,30.91901418701172,90.12691570129394Q34.04267418701172,84.10081570129395,38.857804187011716,79.28571570129395Q43.67280418701172,74.47061570129395,49.699004187011724,71.34701570129394Q53.14900418701172,69.55861570129395,57.47770418701172,68.52601570129394Q61.56780418701172,67.55021570129395,67.18640418701172,67.07951570129394Q72.11550418701171,66.66661570129395,79.63220418701172,66.54011570129394Q84.50790418701172,66.45811570129395,95.64840418701172,66.45811570129395L204.4306041870117,66.45811570129395Q209.5556041870117,66.45811570129395,211.37460418701173,66.38461570129394Q214.05060418701171,66.27661570129395,215.9196041870117,65.88601570129394Q219.55760418701172,65.12631570129395,222.85660418701173,63.415015701293946Q224.55160418701172,62.53541570129394,226.69360418701172,60.92731570129394Q228.14860418701173,59.834515701293945,232.11960418701173,56.593915701293945L253.6856041870117,38.99561570129394Z" fill="url(#master_svg2_1_3265)" fill-opacity="1"/></g></g></g><g style="mix-blend-mode:passthrough"><path d="M100,169L68,169L68,161L100,161L100,169ZM104,165Q104,165.196507,103.9807,165.392069Q103.9615,165.58763,103.9231,165.780361Q103.8848,165.973093,103.8278,166.16114Q103.7707,166.34918,103.69550000000001,166.53073Q103.6203,166.71228,103.52770000000001,166.88559Q103.4351,167.05889,103.32589999999999,167.22228Q103.2167,167.38567,103.092,167.53757Q102.9674,167.68948,102.8284,167.82843Q102.68950000000001,167.96738,102.5376,168.09204Q102.3857,168.2167,102.22229999999999,168.32588Q102.0589,168.43505,101.8856,168.52768Q101.7123,168.62032,101.5307,168.69552Q101.3492,168.77072,101.1611,168.82776Q100.9731,168.8848,100.7804,168.92314Q100.58760000000001,168.96148,100.3921,168.98074Q100.1965,169,100,169Q99.8035,169,99.6079,168.98074Q99.4124,168.96148,99.2196,168.92314Q99.0269,168.8848,98.8389,168.82776Q98.6508,168.77072,98.4693,168.69552Q98.2877,168.62032,98.1144,168.52768Q97.9411,168.43505,97.7777,168.32588Q97.6143,168.2167,97.4624,168.09204Q97.3105,167.96738,97.1716,167.82843Q97.0326,167.68948,96.908,167.53757Q96.7833,167.38567,96.6741,167.22228Q96.5649,167.05889,96.4723,166.88559Q96.3797,166.71228,96.3045,166.53073Q96.2293,166.34918,96.1722,166.16114Q96.1152,165.973093,96.0769,165.780361Q96.0385,165.58763,96.0193,165.392069Q96,165.196507,96,165Q96,164.803493,96.0193,164.607931Q96.0385,164.41237,96.0769,164.219639Q96.1152,164.026907,96.1722,163.83886Q96.2293,163.65082,96.3045,163.46927Q96.3797,163.28772,96.4723,163.11441Q96.5649,162.94111,96.6741,162.77772Q96.7833,162.61433,96.908,162.46243Q97.0326,162.31052,97.1716,162.17157Q97.3105,162.03262,97.4624,161.90796Q97.6143,161.7833,97.7777,161.67412Q97.9411,161.56495,98.1144,161.47232Q98.2877,161.37968,98.4693,161.30448Q98.6508,161.22928,98.8389,161.17224Q99.0269,161.1152,99.2196,161.07686Q99.4124,161.03852,99.6079,161.01926Q99.8035,161,100,161Q100.1965,161,100.3921,161.01926Q100.58760000000001,161.03852,100.7804,161.07686Q100.9731,161.1152,101.1611,161.17224Q101.3492,161.22928,101.5307,161.30448Q101.7123,161.37968,101.8856,161.47232Q102.0589,161.56495,102.22229999999999,161.67412Q102.3857,161.7833,102.5376,161.90796Q102.68950000000001,162.03262,102.8284,162.17157Q102.9674,162.31052,103.092,162.46243Q103.2167,162.61433,103.32589999999999,162.77772Q103.4351,162.94111,103.52770000000001,163.11441Q103.6203,163.28772,103.69550000000001,163.46927Q103.7707,163.65082,103.8278,163.83886Q103.8848,164.026907,103.9231,164.219639Q103.9615,164.41237,103.9807,164.607931Q104,164.803493,104,165ZM72,165Q72,165.196507,71.98074,165.392069Q71.96148,165.58763,71.92314,165.780361Q71.8848,165.973093,71.82776,166.16114Q71.77072,166.34918,71.69552,166.53073Q71.62032,166.71228,71.52768,166.88559Q71.43505,167.05889,71.32588,167.22228Q71.2167,167.38567,71.09204,167.53757Q70.96738,167.68948,70.82843,167.82843Q70.68948,167.96738,70.53757,168.09204Q70.38567,168.2167,70.22228,168.32588Q70.05889,168.43505,69.88559,168.52768Q69.71228,168.62032,69.53073,168.69552Q69.34918,168.77072,69.16114,168.82776Q68.973093,168.8848,68.780361,168.92314Q68.58763,168.96148,68.392069,168.98074Q68.196507,169,68,169Q67.803493,169,67.607931,168.98074Q67.41237,168.96148,67.219639,168.92314Q67.026907,168.8848,66.83886,168.82776Q66.65082,168.77072,66.46927,168.69552Q66.28772,168.62032,66.11441,168.52768Q65.94111,168.43505,65.77772,168.32588Q65.61433,168.2167,65.46243,168.09204Q65.31052,167.96738,65.17157,167.82843Q65.03262,167.68948,64.90796,167.53757Q64.7833,167.38567,64.67412,167.22228Q64.56495,167.05889,64.47232,166.88559Q64.37968,166.71228,64.30448,166.53073Q64.22928,166.34918,64.17224,166.16114Q64.1152,165.973093,64.07686,165.780361Q64.03852,165.58763,64.01926,165.392069Q64,165.196507,64,165Q64,164.803493,64.01926,164.607931Q64.03852,164.41237,64.07686,164.219639Q64.1152,164.026907,64.17224,163.83886Q64.22928,163.65082,64.30448,163.46927Q64.37968,163.28772,64.47232,163.11441Q64.56495,162.94111,64.67412,162.77772Q64.7833,162.61433,64.90796,162.46243Q65.03262,162.31052,65.17157,162.17157Q65.31052,162.03262,65.46243,161.90796Q65.61433,161.7833,65.77772,161.67412Q65.94111,161.56495,66.11441,161.47232Q66.28772,161.37968,66.46927,161.30448Q66.65082,161.22928,66.83886,161.17224Q67.026907,161.1152,67.219639,161.07686Q67.41237,161.03852,67.607931,161.01926Q67.803493,161,68,161Q68.196507,161,68.392069,161.01926Q68.58763,161.03852,68.780361,161.07686Q68.973093,161.1152,69.16114,161.17224Q69.34918,161.22928,69.53073,161.30448Q69.71228,161.37968,69.88559,161.47232Q70.05889,161.56495,70.22228,161.67412Q70.38567,161.7833,70.53757,161.90796Q70.68948,162.03262,70.82843,162.17157Q70.96738,162.31052,71.09204,162.46243Q71.2167,162.61433,71.32588,162.77772Q71.43505,162.94111,71.52768,163.11441Q71.62032,163.28772,71.69552,163.46927Q71.77072,163.65082,71.82776,163.83886Q71.8848,164.026907,71.92314,164.219639Q71.96148,164.41237,71.98074,164.607931Q72,164.803493,72,165Z" fill="#FFFFFF" fill-opacity="1"/></g><g style="mix-blend-mode:passthrough"><path d="M234,169L202,169L202,161L234,161L234,169ZM238,165Q238,165.196507,237.9807,165.392069Q237.9615,165.58763,237.9231,165.780361Q237.88479999999998,165.973093,237.8278,166.16114Q237.7707,166.34918,237.6955,166.53073Q237.6203,166.71228,237.5277,166.88559Q237.4351,167.05889,237.3259,167.22228Q237.2167,167.38567,237.09199999999998,167.53757Q236.9674,167.68948,236.8284,167.82843Q236.6895,167.96738,236.5376,168.09204Q236.38569999999999,168.2167,236.2223,168.32588Q236.0589,168.43505,235.8856,168.52768Q235.7123,168.62032,235.5307,168.69552Q235.3492,168.77072,235.1611,168.82776Q234.9731,168.8848,234.7804,168.92314Q234.5876,168.96148,234.3921,168.98074Q234.19650000000001,169,234,169Q233.80349999999999,169,233.6079,168.98074Q233.4124,168.96148,233.2196,168.92314Q233.0269,168.8848,232.8389,168.82776Q232.6508,168.77072,232.4693,168.69552Q232.2877,168.62032,232.1144,168.52768Q231.9411,168.43505,231.7777,168.32588Q231.61430000000001,168.2167,231.4624,168.09204Q231.3105,167.96738,231.1716,167.82843Q231.0326,167.68948,230.90800000000002,167.53757Q230.7833,167.38567,230.6741,167.22228Q230.5649,167.05889,230.4723,166.88559Q230.3797,166.71228,230.3045,166.53073Q230.2293,166.34918,230.1722,166.16114Q230.11520000000002,165.973093,230.0769,165.780361Q230.0385,165.58763,230.0193,165.392069Q230,165.196507,230,165Q230,164.803493,230.0193,164.607931Q230.0385,164.41237,230.0769,164.219639Q230.11520000000002,164.026907,230.1722,163.83886Q230.2293,163.65082,230.3045,163.46927Q230.3797,163.28772,230.4723,163.11441Q230.5649,162.94111,230.6741,162.77772Q230.7833,162.61433,230.90800000000002,162.46243Q231.0326,162.31052,231.1716,162.17157Q231.3105,162.03262,231.4624,161.90796Q231.61430000000001,161.7833,231.7777,161.67412Q231.9411,161.56495,232.1144,161.47232Q232.2877,161.37968,232.4693,161.30448Q232.6508,161.22928,232.8389,161.17224Q233.0269,161.1152,233.2196,161.07686Q233.4124,161.03852,233.6079,161.01926Q233.80349999999999,161,234,161Q234.19650000000001,161,234.3921,161.01926Q234.5876,161.03852,234.7804,161.07686Q234.9731,161.1152,235.1611,161.17224Q235.3492,161.22928,235.5307,161.30448Q235.7123,161.37968,235.8856,161.47232Q236.0589,161.56495,236.2223,161.67412Q236.38569999999999,161.7833,236.5376,161.90796Q236.6895,162.03262,236.8284,162.17157Q236.9674,162.31052,237.09199999999998,162.46243Q237.2167,162.61433,237.3259,162.77772Q237.4351,162.94111,237.5277,163.11441Q237.6203,163.28772,237.6955,163.46927Q237.7707,163.65082,237.8278,163.83886Q237.88479999999998,164.026907,237.9231,164.219639Q237.9615,164.41237,237.9807,164.607931Q238,164.803493,238,165ZM206,165Q206,165.196507,205.98074,165.392069Q205.96148,165.58763,205.92314,165.780361Q205.8848,165.973093,205.82776,166.16114Q205.77072,166.34918,205.69552,166.53073Q205.62032,166.71228,205.52768,166.88559Q205.43505,167.05889,205.32588,167.22228Q205.2167,167.38567,205.09204,167.53757Q204.96738,167.68948,204.82843,167.82843Q204.68948,167.96738,204.53757,168.09204Q204.38567,168.2167,204.22228,168.32588Q204.05889,168.43505,203.88559,168.52768Q203.71228,168.62032,203.53073,168.69552Q203.34918,168.77072,203.16114,168.82776Q202.973093,168.8848,202.780361,168.92314Q202.58763,168.96148,202.392069,168.98074Q202.196507,169,202,169Q201.803493,169,201.607931,168.98074Q201.41237,168.96148,201.219639,168.92314Q201.026907,168.8848,200.83886,168.82776Q200.65082,168.77072,200.46927,168.69552Q200.28772,168.62032,200.11441,168.52768Q199.94111,168.43505,199.77772,168.32588Q199.61433,168.2167,199.46243,168.09204Q199.31052,167.96738,199.17157,167.82843Q199.03262,167.68948,198.90796,167.53757Q198.7833,167.38567,198.67412,167.22228Q198.56495,167.05889,198.47232,166.88559Q198.37968,166.71228,198.30448,166.53073Q198.22928,166.34918,198.17224,166.16114Q198.1152,165.973093,198.07686,165.780361Q198.03852,165.58763,198.01926,165.392069Q198,165.196507,198,165Q198,164.803493,198.01926,164.607931Q198.03852,164.41237,198.07686,164.219639Q198.1152,164.026907,198.17224,163.83886Q198.22928,163.65082,198.30448,163.46927Q198.37968,163.28772,198.47232,163.11441Q198.56495,162.94111,198.67412,162.77772Q198.7833,162.61433,198.90796,162.46243Q199.03262,162.31052,199.17157,162.17157Q199.31052,162.03262,199.46243,161.90796Q199.61433,161.7833,199.77772,161.67412Q199.94111,161.56495,200.11441,161.47232Q200.28772,161.37968,200.46927,161.30448Q200.65082,161.22928,200.83886,161.17224Q201.026907,161.1152,201.219639,161.07686Q201.41237,161.03852,201.607931,161.01926Q201.803493,161,202,161Q202.196507,161,202.392069,161.01926Q202.58763,161.03852,202.780361,161.07686Q202.973093,161.1152,203.16114,161.17224Q203.34918,161.22928,203.53073,161.30448Q203.71228,161.37968,203.88559,161.47232Q204.05889,161.56495,204.22228,161.67412Q204.38567,161.7833,204.53757,161.90796Q204.68948,162.03262,204.82843,162.17157Q204.96738,162.31052,205.09204,162.46243Q205.2167,162.61433,205.32588,162.77772Q205.43505,162.94111,205.52768,163.11441Q205.62032,163.28772,205.69552,163.46927Q205.77072,163.65082,205.82776,163.83886Q205.8848,164.026907,205.92314,164.219639Q205.96148,164.41237,205.98074,164.607931Q206,164.803493,206,165Z" fill="#FFFFFF" fill-opacity="1"/></g><g style="mix-blend-mode:passthrough"><path d="M162.9844,170.6Q165.375,173.2875,166.6875,176.8187Q168,180.35,168,184.4281Q168,188.6937,166.625,191.6781Q165.25,194.64690000000002,162.9844,196.1312Q160.7188,197.6,158.0625,197.6Q155.6719,197.6,153.75,196.35Q151.8438,195.1,150.7812,192.5687Q149.7031,195.1,147.8438,196.35Q145.9844,197.6,143.6562,197.6Q141.07812,197.6,138.875,196.1312Q136.67188,194.64690000000002,135.32812,191.6781Q134,188.6937,134,184.4281Q134,180.35,135.29688,176.8187Q136.59375,173.2875,138.98438,170.6L143.6875,170.6Q141.10938,173.5375,139.79688,177.0844Q138.5,180.6156,138.5,184.4437Q138.5,188.70940000000002,139.98438,191.1312Q141.46875,193.5375,143.8906,193.5375Q145.9688,193.5375,147.2344,191.6312Q148.5,189.725,148.5,184.7875L148.5,177.9125L153,177.9125L153,184.7875Q153,189.725,154.3125,191.6312Q155.6406,193.5375,157.8438,193.5375Q160.3906,193.5375,161.9375,191.1312Q163.5,188.70940000000002,163.5,184.4437Q163.5,180.6156,162.125,177.0844Q160.75,173.5375,158.0469,170.6L162.9844,170.6Z" fill="#FFFFFF" fill-opacity="1"/></g></g></g></svg>