<svg xmlns="http://www.w3.org/2000/svg" xmlns:xlink="http://www.w3.org/1999/xlink" fill="none" version="1.1" width="274" height="265.54315185546875" viewBox="0 0 274 265.54315185546875"><defs><filter id="master_svg0_1_22505" filterUnits="userSpaceOnUse" color-interpolation-filters="sRGB" x="-20.758913040161133" y="0" width="267.63020515441895" height="264.5966272354126"><feFlood flood-opacity="0" result="BackgroundImageFix"/><feBlend mode="normal" in="SourceGraphic" in2="BackgroundImageFix" result="shape"/><feGaussianBlur in="BackgroundImage" stdDeviation="10.379456520080566"/><feComposite in2="SourceAlpha" operator="in" result="effect1_foregroundBlur"/><feBlend mode="normal" in="SourceGraphic" in2="effect1_foregroundBlur" result="shape"/></filter><filter id="master_svg1_1_22507" filterUnits="userSpaceOnUse" color-interpolation-filters="sRGB" x="26.78960418701172" y="23.398515701293945" width="267.96931648254395" height="264.92879581451416"><feFlood flood-opacity="0" result="BackgroundImageFix"/><feBlend mode="normal" in="SourceGraphic" in2="BackgroundImageFix" result="shape"/><feGaussianBlur in="BackgroundImage" stdDeviation="10.379456520080566"/><feComposite in2="SourceAlpha" operator="in" result="effect1_foregroundBlur"/><feBlend mode="normal" in="SourceGraphic" in2="effect1_foregroundBlur" result="shape"/></filter><linearGradient x1="0" y1="0.14584580063819885" x2="1.0244438648223877" y2="1.0185296535491943" id="master_svg2_1_3265"><stop offset="0%" stop-color="#EA6E91" stop-opacity="1"/><stop offset="99.99995231628418%" stop-color="#E92E63" stop-opacity="1"/></linearGradient></defs><g style="mix-blend-mode:passthrough"><g><g style="mix-blend-mode:passthrough"><g><g filter="url(#master_svg0_1_22505)" style="mix-blend-mode:passthrough"><path d="M246.8712921142578,172.954C246.8712921142578,197.057,246.9200802142578,209.38,251.6749821142578,218.554C255.76771211425782,226.449,262.2344921142578,232.916,270.1301921142578,237.009C279.30329211425783,241.764,291.6272921142578,241.812,315.7300921142578,241.812L424.8832921142578,241.812C448.9862921142578,241.812,461.3102921142578,241.764,470.4832921142578,237.009C478.37929211425785,232.916,484.84629211425784,226.449,488.9392921142578,218.554C493.6942921142578,209.38,493.7422921142578,197.057,493.7422921142578,172.954L493.7422921142578,25.6002C493.7422921142578,17.4189,493.7192921142578,13.1876,492.0022921142578,11.1406C490.5742921142578,9.43841,488.4332921142578,8.42176,486.21129211425784,8.3917C483.5392921142578,8.35555,480.2472921142578,11.0129,473.90829211425785,16.1855L452.41629211425777,33.7237C447.86029211425785,37.4418,445.5692921142578,39.3094,443.0222921142578,40.6306C440.7722921142578,41.7979,438.3732921142578,42.6526,435.8912921142578,43.1709C433.0832921142578,43.7574,430.1272921142578,43.7589,424.2462921142578,43.7589L315.7300921142578,43.7589C291.6272921142578,43.7589,279.30329211425783,43.8077,270.1301921142578,48.5626C262.2344921142578,52.6554,255.76771211425782,59.1222,251.6749821142578,67.0178C246.9200821142578,76.191,246.8712921142578,88.5149,246.8712921142578,112.618L246.8712921142578,172.954Z" transform="matrix(-1,0,0,1,493.7425842285156,0)" fill="#E92E63" fill-opacity="1"/></g><g filter="url(#master_svg1_1_22507)" style="mix-blend-mode:passthrough"><path d="M26.78960418701172,136.07651570129394L26.78960418701172,196.68451570129395C26.78960418701172,220.78751570129396,26.838392287011718,233.11151570129394,31.59329418701172,242.28451570129394C35.68602418701172,250.17951570129395,42.15280418701172,256.64651570129394,50.048504187011716,260.73951570129395C59.22160418701172,265.49451570129395,71.54560418701172,265.5435157012939,95.64840418701172,265.5435157012939L205.14160418701172,265.5435157012939C229.24360418701173,265.5435157012939,241.5676041870117,265.49451570129395,250.74160418701172,260.73951570129395C258.6366041870117,256.64651570129394,265.1036041870117,250.17951570129395,269.19660418701176,242.28451570129394C273.95160418701175,233.11151570129394,273.99960418701176,220.78751570129396,273.99960418701176,196.68451570129395L273.99960418701176,48.998715701293946C273.99960418701176,40.817415701293946,273.97660418701173,36.58611570129395,272.25960418701175,34.539115701293944C270.83160418701175,32.83692570129394,268.69060418701173,31.820275701293944,266.4686041870117,31.790215701293945C263.79760418701176,31.754065701293946,260.50460418701175,34.41151570129394,254.16560418701172,39.58401570129395L232.60060418701173,57.182315701293945C228.0436041870117,60.900415701293944,225.7526041870117,62.76801570129395,223.20660418701172,64.08921570129394C220.95560418701172,65.25651570129395,218.55660418701171,66.11121570129394,216.07560418701172,66.62951570129394C213.26660418701172,67.21611570129394,210.3106041870117,67.21761570129394,204.4306041870117,67.21761570129394L95.64840418701172,67.21761570129394C71.54560418701172,67.21761570129394,59.22160418701172,67.26641570129394,50.048504187011716,72.02121570129395C42.15280418701172,76.11401570129394,35.68602418701172,82.58081570129394,31.59329418701172,90.47651570129395C26.83839608701172,99.64961570129394,26.78960418701172,111.97351570129395,26.78960418701172,136.07651570129394Z" fill="#E92E63" fill-opacity="0.699999988079071"/><path d="M254.6456041870117,40.17241570129394L233.08060418701172,57.770715701293945Q229.0856041870117,61.03091570129394,227.60560418701172,62.14191570129395Q225.36360418701173,63.825715701293944,223.5556041870117,64.76341570129395Q220.0726041870117,66.57061570129395,216.23060418701172,67.37291570129395Q214.23760418701173,67.78921570129395,211.4356041870117,67.90231570129394Q209.5856041870117,67.97701570129394,204.4306041870117,67.97701570129394L95.64840418701172,67.97701570129394Q84.52080418701172,67.97711570129394,79.65780418701172,68.05881570129395Q72.19180418701171,68.18441570129394,67.31320418701172,68.59311570129395Q61.80880418701172,69.05431570129394,57.83020418701172,70.00341570129395Q53.68270418701172,70.99291570129395,50.39800418701172,72.69551570129394Q44.580604187011716,75.71091570129394,39.93180418701172,80.35981570129394Q35.28300418701172,85.00861570129395,32.26756418701172,90.82601570129394Q30.56495418701172,94.11061570129395,29.575484187011718,98.25811570129395Q28.62631418701172,102.23671570129395,28.165184187011718,107.74121570129394Q27.75649118701172,112.61971570129394,27.63088818701172,120.08571570129395Q27.54907718701172,124.94851570129394,27.54907718701172,136.07651570129394L27.549076187011718,196.68451570129395Q27.54907718701172,207.81151570129396,27.63088718701172,212.67451570129396Q27.75648818701172,220.14051570129394,28.165184187011718,225.01951570129395Q28.62630418701172,230.52351570129395,29.575484187011718,234.50251570129396Q30.56495418701172,238.65051570129395,32.26756418701172,241.93451570129395Q35.28295418701172,247.75251570129396,39.93180418701172,252.40051570129395Q44.58070418701172,257.04951570129396,50.39800418701172,260.065515701294Q53.68280418701172,261.767515701294,57.83020418701172,262.757515701294Q61.80890418701172,263.70651570129394,67.31320418701172,264.16751570129395Q72.19220418701173,264.57651570129394,79.65780418701172,264.70151570129394Q84.52240418701172,264.78351570129394,95.64840418701172,264.78351570129394L205.14160418701172,264.78351570129394Q216.26760418701173,264.78351570129394,221.13160418701173,264.70151570129394Q228.5976041870117,264.57651570129394,233.47660418701173,264.16751570129395Q238.98060418701172,263.70651570129394,242.9596041870117,262.757515701294Q247.10660418701173,261.767515701294,250.39160418701172,260.065515701294Q256.2086041870117,257.04951570129396,260.8576041870117,252.40051570129395Q265.5066041870117,247.75151570129395,268.5216041870117,241.93451570129395Q270.2246041870117,238.64951570129395,271.21460418701173,234.50251570129396Q272.16360418701174,230.52351570129395,272.62460418701176,225.01951570129395Q273.03360418701175,220.14051570129394,273.15860418701175,212.67451570129396Q273.24060418701174,207.81051570129395,273.24060418701174,196.68451570129395L273.24060418701174,48.998715701293946Q273.24060418701174,41.90161570129395,273.0176041870117,39.53991570129395Q272.7076041870117,36.254915701293946,271.67760418701175,35.027115701293944Q270.7136041870117,33.877515701293945,269.33660418701174,33.22371570129395Q267.9586041870117,32.56992570129395,266.4586041870117,32.549615701293945Q264.8566041870117,32.52793570129394,262.11560418701174,34.364715701293946Q260.14460418701174,35.685115701293945,254.6456041870117,40.17241570129394ZM253.6856041870117,38.99561570129394Q259.2396041870117,34.46301570129395,261.26960418701174,33.10294570129395Q264.40360418701175,31.002725701293947,266.4786041870117,31.030815701293946Q268.3106041870117,31.055605701293945,269.9876041870117,31.851505701293945Q271.6646041870117,32.647435701293944,272.84160418701174,34.05101570129395Q274.1756041870117,35.641215701293945,274.5296041870117,39.397215701293945Q274.75960418701175,41.83011570129395,274.75960418701175,48.998715701293946L274.75960418701175,196.68451570129395Q274.75960418701175,207.82351570129396,274.67760418701175,212.70051570129394Q274.5506041870117,220.21651570129396,274.13760418701173,225.14651570129394Q273.6676041870117,230.76451570129396,272.6916041870117,234.85551570129394Q271.65860418701175,239.18351570129394,269.87060418701174,242.63351570129396Q266.7466041870117,248.65951570129394,261.9316041870117,253.47451570129394Q257.1166041870117,258.29051570129394,251.0906041870117,261.41351570129393Q247.64060418701172,263.2025157012939,243.3116041870117,264.23451570129396Q239.2216041870117,265.21051570129396,233.6036041870117,265.68151570129396Q228.6736041870117,266.094515701294,221.1576041870117,266.22051570129395Q216.27960418701173,266.30251570129394,205.14160418701172,266.30251570129394L95.64840418701172,266.30251570129394Q84.50960418701172,266.30251570129394,79.63220418701172,266.22051570129395Q72.11610418701173,266.094515701294,67.18640418701172,265.68151570129396Q61.56790418701172,265.21051570129396,57.47770418701172,264.23451570129396Q53.14920418701172,263.2025157012939,49.699004187011724,261.41351570129393Q43.67290418701172,258.2895157012939,38.857804187011716,253.47451570129394Q34.04264418701172,248.65951570129394,30.91902418701172,242.63351570129396Q29.13069418701172,239.18351570129394,28.098004187011718,234.85551570129394Q27.122231187011717,230.76451570129396,26.651539187011718,225.14651570129394Q26.23861118701172,220.21751570129393,26.112157187011718,212.70051570129394Q26.03013118701172,207.82451570129393,26.03013218701172,196.68451570129395L26.03013218701172,136.07651570129394Q26.03013218701172,124.93551570129395,26.11215818701172,120.06021570129394Q26.23861418701172,112.54351570129394,26.65154018701172,107.61441570129395Q27.12223418701172,101.99571570129395,28.098004187011718,97.90571570129394Q29.13070418701172,93.57701570129394,30.91901418701172,90.12691570129394Q34.04267418701172,84.10081570129395,38.857804187011716,79.28571570129395Q43.67280418701172,74.47061570129395,49.699004187011724,71.34701570129394Q53.14900418701172,69.55861570129395,57.47770418701172,68.52601570129394Q61.56780418701172,67.55021570129395,67.18640418701172,67.07951570129394Q72.11550418701171,66.66661570129395,79.63220418701172,66.54011570129394Q84.50790418701172,66.45811570129395,95.64840418701172,66.45811570129395L204.4306041870117,66.45811570129395Q209.5556041870117,66.45811570129395,211.37460418701173,66.38461570129394Q214.05060418701171,66.27661570129395,215.9196041870117,65.88601570129394Q219.55760418701172,65.12631570129395,222.85660418701173,63.415015701293946Q224.55160418701172,62.53541570129394,226.69360418701172,60.92731570129394Q228.14860418701173,59.834515701293945,232.11960418701173,56.593915701293945L253.6856041870117,38.99561570129394Z" fill="url(#master_svg2_1_3265)" fill-opacity="1"/></g><g style="mix-blend-mode:passthrough"><ellipse cx="150.3948097229004" cy="171.75867080688477" rx="12.37747573852539" ry="12.37747573852539" fill="#FFFFFF" fill-opacity="1"/></g></g></g><g style="mix-blend-mode:passthrough"><g transform="matrix(0.7071067690849304,0.7071067690849304,-0.7071067690849304,0.7071067690849304,123.28177451135707,-17.628530988673447)"><g style="mix-blend-mode:passthrough"><path d="M113.92041015625,158.39599609375L82.92041015625,158.39599609375L82.92041015625,152.39599609375L113.92041015625,152.39599609375L113.92041015625,158.39599609375ZM116.92041015625,155.39599609375Q116.92041015625,155.54337709375,116.90591015625,155.69004709375Q116.89151015625,155.83671809375,116.86281015624999,155.98126709375Q116.83401015625,156.12581609375,116.79121015625,156.26685009375Q116.74841015625,156.40788609375,116.69201015625,156.54404609375Q116.63561015625001,156.68020609375,116.56621015625001,156.81018609375Q116.49671015625,156.94016609375,116.41481015625,157.06270609375Q116.33291015625,157.18524609375,116.23941015625,157.29917609375Q116.14591015625,157.41310609375,116.04171015624999,157.51731609375Q115.93751015625,157.62152609375,115.82361015625,157.71502609375Q115.70961015625,157.80852609375,115.58711015624999,157.89040609375Q115.46461015624999,157.97228609375,115.33461015625,158.04175609375Q115.20461015625,158.11123609375,115.06841015625,158.16763609375Q114.93231015625,158.22403609375,114.79131015625,158.26681609375Q114.65021015625,158.30959609375,114.50571015625,158.33835609375Q114.36111015624999,158.36710609375,114.21451015625,158.38154609375Q114.06781015625,158.39599609375,113.92041015625,158.39599609375Q113.77301015625,158.39599609375,113.62631015625,158.38154609375Q113.47971015625001,158.36710609375,113.33511015625,158.33835609375Q113.19061015625,158.30959609375,113.04951015625,158.26681609375Q112.90851015625,158.22403609375,112.77231015625,158.16763609375Q112.63621015625,158.11123609375,112.50621015625,158.04175609375Q112.37621015625,157.97228609375,112.25371015625001,157.89040609375Q112.13111015625,157.80852609375,112.01721015625,157.71502609375Q111.90331015625,157.62152609375,111.79911015625,157.51731609375Q111.69491015625,157.41310609375,111.60141015625,157.29917609375Q111.50791015625,157.18524609375,111.42601015625,157.06270609375Q111.34411015625,156.94016609375,111.27461015624999,156.81018609375Q111.20521015625,156.68020609375,111.14881015625,156.54404609375Q111.09241015625,156.40788609375,111.04961015625,156.26685009375Q111.00681015625,156.12581609375,110.97801015625001,155.98126709375Q110.94931015625,155.83671809375,110.93481015625,155.69004709375Q110.92041015625,155.54337709375,110.92041015625,155.39599609375Q110.92041015625,155.24861509375,110.93481015625,155.10194509375Q110.94931015625,154.95527409375,110.97801015625001,154.81072509375Q111.00681015625,154.66617609375,111.04961015625,154.52514209375Q111.09241015625,154.38410609375,111.14881015625,154.24794609375Q111.20521015625,154.11178609375,111.27461015624999,153.98180609375Q111.34411015625,153.85182609375,111.42601015625,153.72928609375Q111.50791015625,153.60674609375,111.60141015625,153.49281609375Q111.69491015625,153.37888609375,111.79911015625,153.27467609375Q111.90331015625,153.17046609375,112.01721015625,153.07696609375Q112.13111015625,152.98346609375,112.25371015625001,152.90158609375Q112.37621015625,152.81970609375,112.50621015625,152.75023609375Q112.63621015625,152.68075609375,112.77231015625,152.62435609375Q112.90851015625,152.56795609375,113.04951015625,152.52517609375Q113.19061015625,152.48239609375,113.33511015625,152.45363609375Q113.47971015625001,152.42488609375,113.62631015625,152.41044609375Q113.77301015625,152.39599609375,113.92041015625,152.39599609375Q114.06781015625,152.39599609375,114.21451015625,152.41044609375Q114.36111015624999,152.42488609375,114.50571015625,152.45363609375Q114.65021015625,152.48239609375,114.79131015625,152.52517609375Q114.93231015625,152.56795609375,115.06841015625,152.62435609375Q115.20461015625,152.68075609375,115.33461015625,152.75023609375Q115.46461015624999,152.81970609375,115.58711015624999,152.90158609375Q115.70961015625,152.98346609375,115.82361015625,153.07696609375Q115.93751015625,153.17046609375,116.04171015624999,153.27467609375Q116.14591015625,153.37888609375,116.23941015625,153.49281609375Q116.33291015625,153.60674609375,116.41481015625,153.72928609375Q116.49671015625,153.85182609375,116.56621015625001,153.98180609375Q116.63561015625001,154.11178609375,116.69201015625,154.24794609375Q116.74841015625,154.38410609375,116.79121015625,154.52514209375Q116.83401015625,154.66617609375,116.86281015624999,154.81072509375Q116.89151015625,154.95527409375,116.90591015625,155.10194509375Q116.92041015625,155.24861509375,116.92041015625,155.39599609375ZM85.92041015625,155.39599609375Q85.92041015625,155.54337709375,85.90596015625,155.69004709375Q85.89152015625,155.83671809375,85.86277015625,155.98126709375Q85.83401015625,156.12581609375,85.79123015625,156.26685009375Q85.74845015625,156.40788609375,85.69205015625,156.54404609375Q85.63565015625,156.68020609375,85.56617015625,156.81018609375Q85.49670015625,156.94016609375,85.41482015625,157.06270609375Q85.33294015625,157.18524609375,85.23944015625,157.29917609375Q85.14594015625,157.41310609375,85.04173015625,157.51731609375Q84.93752015625,157.62152609375,84.82359015625,157.71502609375Q84.70966015625,157.80852609375,84.58712015625,157.89040609375Q84.46458015625,157.97228609375,84.33460015625,158.04175609375Q84.20462015625,158.11123609375,84.06846015625,158.16763609375Q83.93230015625,158.22403609375,83.79126415625,158.26681609375Q83.65023015625,158.30959609375,83.50568115625,158.33835609375Q83.36113215625,158.36710609375,83.21446115625,158.38154609375Q83.06779115625,158.39599609375,82.92041015625,158.39599609375Q82.77302915625,158.39599609375,82.62635915625,158.38154609375Q82.47968815625,158.36710609375,82.33513915625,158.33835609375Q82.19059015625,158.30959609375,82.04955615625,158.26681609375Q81.90852015625,158.22403609375,81.77236015625,158.16763609375Q81.63620015625,158.11123609375,81.50622015625,158.04175609375Q81.37624015625,157.97228609375,81.25370015625,157.89040609375Q81.13116015625,157.80852609375,81.01723015625,157.71502609375Q80.90330015625,157.62152609375,80.79909015625,157.51731609375Q80.69488015625,157.41310609375,80.60138015625,157.29917609375Q80.50788015625,157.18524609375,80.42600015625,157.06270609375Q80.34412015625,156.94016609375,80.27465015625,156.81018609375Q80.20517015625,156.68020609375,80.14877015625,156.54404609375Q80.09237015625,156.40788609375,80.04959015625,156.26685009375Q80.00681015625,156.12581609375,79.97805015625,155.98126709375Q79.94930015625,155.83671809375,79.93486015625,155.69004709375Q79.92041015625,155.54337709375,79.92041015625,155.39599609375Q79.92041015625,155.24861509375,79.93486015625,155.10194509375Q79.94930015625,154.95527409375,79.97805015625,154.81072509375Q80.00681015625,154.66617609375,80.04959015625,154.52514209375Q80.09237015625,154.38410609375,80.14877015625,154.24794609375Q80.20517015625,154.11178609375,80.27465015625,153.98180609375Q80.34412015625,153.85182609375,80.42600015625,153.72928609375Q80.50788015625,153.60674609375,80.60138015625,153.49281609375Q80.69488015625,153.37888609375,80.79909015625,153.27467609375Q80.90330015625,153.17046609375,81.01723015625,153.07696609375Q81.13116015625,152.98346609375,81.25370015625,152.90158609375Q81.37624015625,152.81970609375,81.50622015625,152.75023609375Q81.63620015625,152.68075609375,81.77236015625,152.62435609375Q81.90852015625,152.56795609375,82.04955615625,152.52517609375Q82.19059015625,152.48239609375,82.33513915625,152.45363609375Q82.47968815625,152.42488609375,82.62635915625,152.41044609375Q82.77302915625,152.39599609375,82.92041015625,152.39599609375Q83.06779115625,152.39599609375,83.21446115625,152.41044609375Q83.36113215625,152.42488609375,83.50568115625,152.45363609375Q83.65023015625,152.48239609375,83.79126415625,152.52517609375Q83.93230015625,152.56795609375,84.06846015625,152.62435609375Q84.20462015625,152.68075609375,84.33460015625,152.75023609375Q84.46458015625,152.81970609375,84.58712015625,152.90158609375Q84.70966015625,152.98346609375,84.82359015625,153.07696609375Q84.93752015625,153.17046609375,85.04173015625,153.27467609375Q85.14594015625,153.37888609375,85.23944015625,153.49281609375Q85.33294015625,153.60674609375,85.41482015625,153.72928609375Q85.49670015625,153.85182609375,85.56617015625,153.98180609375Q85.63565015625,154.11178609375,85.69205015625,154.24794609375Q85.74845015625,154.38410609375,85.79123015625,154.52514209375Q85.83401015625,154.66617609375,85.86277015625,154.81072509375Q85.89152015625,154.95527409375,85.90596015625,155.10194509375Q85.92041015625,155.24861509375,85.92041015625,155.39599609375Z" fill="#FFFFFF" fill-opacity="1"/></g><g style="mix-blend-mode:passthrough"><path d="M129.5244140625,143L98.5244140625,143L98.5244140625,137L129.5244140625,137L129.5244140625,143ZM132.5244140625,140Q132.5244140625,140.147381,132.5099140625,140.294051Q132.4955140625,140.440722,132.4668140625,140.585271Q132.4380140625,140.72982,132.3952140625,140.870854Q132.3524140625,141.01189,132.2960140625,141.14805Q132.2396140625,141.28421,132.1702140625,141.41419Q132.1007140625,141.54417,132.01881406249998,141.66671Q131.9369140625,141.78925,131.84341406250002,141.90318Q131.7499140625,142.01711,131.6457140625,142.12132Q131.5415140625,142.22553,131.4276140625,142.31903Q131.3136140625,142.41253,131.1911140625,142.49441Q131.0686140625,142.57629,130.9386140625,142.64576Q130.8086140625,142.71524,130.6724140625,142.77164Q130.5363140625,142.82804,130.3953140625,142.87082Q130.2542140625,142.9136,130.1097140625,142.94236Q129.9651140625,142.97111,129.81851406250001,142.98555Q129.6718140625,143,129.5244140625,143Q129.3770140625,143,129.23031406249999,142.98555Q129.0837140625,142.97111,128.9391140625,142.94236Q128.7946140625,142.9136,128.6535140625,142.87082Q128.5125140625,142.82804,128.3763140625,142.77164Q128.2402140625,142.71524,128.1102140625,142.64576Q127.9802140625,142.57629,127.85771406250001,142.49441Q127.7351140625,142.41253,127.6212140625,142.31903Q127.5073140625,142.22553,127.4031140625,142.12132Q127.2989140625,142.01711,127.2054140625,141.90318Q127.1119140625,141.78925,127.0300140625,141.66671Q126.9481140625,141.54417,126.87861406249999,141.41419Q126.8092140625,141.28421,126.7528140625,141.14805Q126.6964140625,141.01189,126.6536140625,140.870854Q126.6108140625,140.72982,126.58201406250001,140.585271Q126.5533140625,140.440722,126.5388140625,140.294051Q126.5244140625,140.147381,126.5244140625,140Q126.5244140625,139.852619,126.5388140625,139.705949Q126.5533140625,139.559278,126.58201406250001,139.414729Q126.6108140625,139.27018,126.6536140625,139.129146Q126.6964140625,138.98811,126.7528140625,138.85195Q126.8092140625,138.71579,126.87861406249999,138.58581Q126.9481140625,138.45583,127.0300140625,138.33329Q127.1119140625,138.21075,127.2054140625,138.09682Q127.2989140625,137.98289,127.4031140625,137.87868Q127.5073140625,137.77447,127.6212140625,137.68097Q127.7351140625,137.58747,127.85771406250001,137.50559Q127.9802140625,137.42371,128.1102140625,137.35424Q128.2402140625,137.28476,128.3763140625,137.22836Q128.5125140625,137.17196,128.6535140625,137.12918Q128.7946140625,137.0864,128.9391140625,137.05764Q129.0837140625,137.02889,129.23031406249999,137.01445Q129.3770140625,137,129.5244140625,137Q129.6718140625,137,129.81851406250001,137.01445Q129.9651140625,137.02889,130.1097140625,137.05764Q130.2542140625,137.0864,130.3953140625,137.12918Q130.5363140625,137.17196,130.6724140625,137.22836Q130.8086140625,137.28476,130.9386140625,137.35424Q131.0686140625,137.42371,131.1911140625,137.50559Q131.3136140625,137.58747,131.4276140625,137.68097Q131.5415140625,137.77447,131.6457140625,137.87868Q131.7499140625,137.98289,131.84341406250002,138.09682Q131.9369140625,138.21075,132.01881406249998,138.33329Q132.1007140625,138.45583,132.1702140625,138.58581Q132.2396140625,138.71579,132.2960140625,138.85195Q132.3524140625,138.98811,132.3952140625,139.129146Q132.4380140625,139.27018,132.4668140625,139.414729Q132.4955140625,139.559278,132.5099140625,139.705949Q132.5244140625,139.852619,132.5244140625,140ZM101.5244140625,140Q101.5244140625,140.147381,101.5099640625,140.294051Q101.4955240625,140.440722,101.4667740625,140.585271Q101.4380140625,140.72982,101.3952340625,140.870854Q101.3524540625,141.01189,101.2960540625,141.14805Q101.2396540625,141.28421,101.1701740625,141.41419Q101.1007040625,141.54417,101.0188240625,141.66671Q100.9369440625,141.78925,100.8434440625,141.90318Q100.7499440625,142.01711,100.6457340625,142.12132Q100.5415240625,142.22553,100.4275940625,142.31903Q100.3136640625,142.41253,100.1911240625,142.49441Q100.0685840625,142.57629,99.9386040625,142.64576Q99.8086240625,142.71524,99.6724640625,142.77164Q99.5363040625,142.82804,99.3952680625,142.87082Q99.2542340625,142.9136,99.1096850625,142.94236Q98.9651360625,142.97111,98.8184650625,142.98555Q98.6717950625,143,98.5244140625,143Q98.3770330625,143,98.2303630625,142.98555Q98.0836920625,142.97111,97.9391430625,142.94236Q97.7945940625,142.9136,97.6535600625,142.87082Q97.5125240625,142.82804,97.3763640625,142.77164Q97.2402040625,142.71524,97.1102240625,142.64576Q96.9802440625,142.57629,96.8577040625,142.49441Q96.7351640625,142.41253,96.6212340625,142.31903Q96.5073040625,142.22553,96.4030940625,142.12132Q96.2988840625,142.01711,96.2053840625,141.90318Q96.1118840625,141.78925,96.0300040625,141.66671Q95.9481240625,141.54417,95.8786540625,141.41419Q95.8091740625,141.28421,95.7527740625,141.14805Q95.6963740625,141.01189,95.6535940625,140.870854Q95.6108140625,140.72982,95.5820540625,140.585271Q95.5533040625,140.440722,95.5388640625,140.294051Q95.5244140625,140.147381,95.5244140625,140Q95.5244140625,139.852619,95.5388640625,139.705949Q95.5533040625,139.559278,95.5820540625,139.414729Q95.6108140625,139.27018,95.6535940625,139.129146Q95.6963740625,138.98811,95.7527740625,138.85195Q95.8091740625,138.71579,95.8786540625,138.58581Q95.9481240625,138.45583,96.0300040625,138.33329Q96.1118840625,138.21075,96.2053840625,138.09682Q96.2988840625,137.98289,96.4030940625,137.87868Q96.5073040625,137.77447,96.6212340625,137.68097Q96.7351640625,137.58747,96.8577040625,137.50559Q96.9802440625,137.42371,97.1102240625,137.35424Q97.2402040625,137.28476,97.3763640625,137.22836Q97.5125240625,137.17196,97.6535600625,137.12918Q97.7945940625,137.0864,97.9391430625,137.05764Q98.0836920625,137.02889,98.2303630625,137.01445Q98.3770330625,137,98.5244140625,137Q98.6717950625,137,98.8184650625,137.01445Q98.9651360625,137.02889,99.1096850625,137.05764Q99.2542340625,137.0864,99.3952680625,137.12918Q99.5363040625,137.17196,99.6724640625,137.22836Q99.8086240625,137.28476,99.9386040625,137.35424Q100.0685840625,137.42371,100.1911240625,137.50559Q100.3136640625,137.58747,100.4275940625,137.68097Q100.5415240625,137.77447,100.6457340625,137.87868Q100.7499440625,137.98289,100.8434440625,138.09682Q100.9369440625,138.21075,101.0188240625,138.33329Q101.1007040625,138.45583,101.1701740625,138.58581Q101.2396540625,138.71579,101.2960540625,138.85195Q101.3524540625,138.98811,101.3952340625,139.129146Q101.4380140625,139.27018,101.4667740625,139.414729Q101.4955240625,139.559278,101.5099640625,139.705949Q101.5244140625,139.852619,101.5244140625,140Z" transform="matrix(0,1,-1,0,238.5244140625,41.4755859375)" fill="#FFFFFF" fill-opacity="1"/></g></g></g><g style="mix-blend-mode:passthrough"><g transform="matrix(0.7071067690849304,0.7071067690849304,-0.7071067690849304,0.7071067690849304,163.2383892047801,-114.09232645150041)"><g style="mix-blend-mode:passthrough"><path d="M250.3408203125,158.39599609375L219.3408203125,158.39599609375L219.3408203125,152.39599609375L250.3408203125,152.39599609375L250.3408203125,158.39599609375ZM253.3408203125,155.39599609375Q253.3408203125,155.54337709375,253.3263203125,155.69004709375Q253.3119203125,155.83671809375,253.2832203125,155.98126709375Q253.2544203125,156.12581609375,253.2116203125,156.26685009375Q253.1688203125,156.40788609375,253.1124203125,156.54404609375Q253.0560203125,156.68020609375,252.9866203125,156.81018609375Q252.9171203125,156.94016609375,252.83522031249998,157.06270609375Q252.7533203125,157.18524609375,252.65982031250002,157.29917609375Q252.5663203125,157.41310609375,252.4621203125,157.51731609375Q252.3579203125,157.62152609375,252.2440203125,157.71502609375Q252.1300203125,157.80852609375,252.0075203125,157.89040609375Q251.8850203125,157.97228609375,251.7550203125,158.04175609375Q251.6250203125,158.11123609375,251.4888203125,158.16763609375Q251.3527203125,158.22403609375,251.2117203125,158.26681609375Q251.0706203125,158.30959609375,250.9261203125,158.33835609375Q250.7815203125,158.36710609375,250.63492031250001,158.38154609375Q250.4882203125,158.39599609375,250.3408203125,158.39599609375Q250.1934203125,158.39599609375,250.04672031249999,158.38154609375Q249.9001203125,158.36710609375,249.7555203125,158.33835609375Q249.6110203125,158.30959609375,249.4699203125,158.26681609375Q249.3289203125,158.22403609375,249.1927203125,158.16763609375Q249.0566203125,158.11123609375,248.9266203125,158.04175609375Q248.7966203125,157.97228609375,248.6741203125,157.89040609375Q248.5515203125,157.80852609375,248.4376203125,157.71502609375Q248.3237203125,157.62152609375,248.2195203125,157.51731609375Q248.1153203125,157.41310609375,248.0218203125,157.29917609375Q247.9283203125,157.18524609375,247.84642031250002,157.06270609375Q247.7645203125,156.94016609375,247.6950203125,156.81018609375Q247.6256203125,156.68020609375,247.5692203125,156.54404609375Q247.5128203125,156.40788609375,247.4700203125,156.26685009375Q247.4272203125,156.12581609375,247.3984203125,155.98126709375Q247.3697203125,155.83671809375,247.3552203125,155.69004709375Q247.3408203125,155.54337709375,247.3408203125,155.39599609375Q247.3408203125,155.24861509375,247.3552203125,155.10194509375Q247.3697203125,154.95527409375,247.3984203125,154.81072509375Q247.4272203125,154.66617609375,247.4700203125,154.52514209375Q247.5128203125,154.38410609375,247.5692203125,154.24794609375Q247.6256203125,154.11178609375,247.6950203125,153.98180609375Q247.7645203125,153.85182609375,247.84642031250002,153.72928609375Q247.9283203125,153.60674609375,248.0218203125,153.49281609375Q248.1153203125,153.37888609375,248.2195203125,153.27467609375Q248.3237203125,153.17046609375,248.4376203125,153.07696609375Q248.5515203125,152.98346609375,248.6741203125,152.90158609375Q248.7966203125,152.81970609375,248.9266203125,152.75023609375Q249.0566203125,152.68075609375,249.1927203125,152.62435609375Q249.3289203125,152.56795609375,249.4699203125,152.52517609375Q249.6110203125,152.48239609375,249.7555203125,152.45363609375Q249.9001203125,152.42488609375,250.04672031249999,152.41044609375Q250.1934203125,152.39599609375,250.3408203125,152.39599609375Q250.4882203125,152.39599609375,250.63492031250001,152.41044609375Q250.7815203125,152.42488609375,250.9261203125,152.45363609375Q251.0706203125,152.48239609375,251.2117203125,152.52517609375Q251.3527203125,152.56795609375,251.4888203125,152.62435609375Q251.6250203125,152.68075609375,251.7550203125,152.75023609375Q251.8850203125,152.81970609375,252.0075203125,152.90158609375Q252.1300203125,152.98346609375,252.2440203125,153.07696609375Q252.3579203125,153.17046609375,252.4621203125,153.27467609375Q252.5663203125,153.37888609375,252.65982031250002,153.49281609375Q252.7533203125,153.60674609375,252.83522031249998,153.72928609375Q252.9171203125,153.85182609375,252.9866203125,153.98180609375Q253.0560203125,154.11178609375,253.1124203125,154.24794609375Q253.1688203125,154.38410609375,253.2116203125,154.52514209375Q253.2544203125,154.66617609375,253.2832203125,154.81072509375Q253.3119203125,154.95527409375,253.3263203125,155.10194509375Q253.3408203125,155.24861509375,253.3408203125,155.39599609375ZM222.3408203125,155.39599609375Q222.3408203125,155.54337709375,222.3263703125,155.69004709375Q222.3119303125,155.83671809375,222.2831803125,155.98126709375Q222.2544203125,156.12581609375,222.2116403125,156.26685009375Q222.1688603125,156.40788609375,222.1124603125,156.54404609375Q222.0560603125,156.68020609375,221.9865803125,156.81018609375Q221.9171103125,156.94016609375,221.8352303125,157.06270609375Q221.7533503125,157.18524609375,221.6598503125,157.29917609375Q221.5663503125,157.41310609375,221.4621403125,157.51731609375Q221.3579303125,157.62152609375,221.2440003125,157.71502609375Q221.1300703125,157.80852609375,221.0075303125,157.89040609375Q220.8849903125,157.97228609375,220.7550103125,158.04175609375Q220.6250303125,158.11123609375,220.4888703125,158.16763609375Q220.3527103125,158.22403609375,220.2116743125,158.26681609375Q220.0706403125,158.30959609375,219.9260913125,158.33835609375Q219.7815423125,158.36710609375,219.6348713125,158.38154609375Q219.4882013125,158.39599609375,219.3408203125,158.39599609375Q219.1934393125,158.39599609375,219.0467693125,158.38154609375Q218.9000983125,158.36710609375,218.7555493125,158.33835609375Q218.6110003125,158.30959609375,218.4699663125,158.26681609375Q218.3289303125,158.22403609375,218.1927703125,158.16763609375Q218.0566103125,158.11123609375,217.9266303125,158.04175609375Q217.7966503125,157.97228609375,217.6741103125,157.89040609375Q217.5515703125,157.80852609375,217.4376403125,157.71502609375Q217.3237103125,157.62152609375,217.2195003125,157.51731609375Q217.1152903125,157.41310609375,217.0217903125,157.29917609375Q216.9282903125,157.18524609375,216.8464103125,157.06270609375Q216.7645303125,156.94016609375,216.6950603125,156.81018609375Q216.6255803125,156.68020609375,216.5691803125,156.54404609375Q216.5127803125,156.40788609375,216.4700003125,156.26685009375Q216.4272203125,156.12581609375,216.3984603125,155.98126709375Q216.3697103125,155.83671809375,216.3552703125,155.69004709375Q216.3408203125,155.54337709375,216.3408203125,155.39599609375Q216.3408203125,155.24861509375,216.3552703125,155.10194509375Q216.3697103125,154.95527409375,216.3984603125,154.81072509375Q216.4272203125,154.66617609375,216.4700003125,154.52514209375Q216.5127803125,154.38410609375,216.5691803125,154.24794609375Q216.6255803125,154.11178609375,216.6950603125,153.98180609375Q216.7645303125,153.85182609375,216.8464103125,153.72928609375Q216.9282903125,153.60674609375,217.0217903125,153.49281609375Q217.1152903125,153.37888609375,217.2195003125,153.27467609375Q217.3237103125,153.17046609375,217.4376403125,153.07696609375Q217.5515703125,152.98346609375,217.6741103125,152.90158609375Q217.7966503125,152.81970609375,217.9266303125,152.75023609375Q218.0566103125,152.68075609375,218.1927703125,152.62435609375Q218.3289303125,152.56795609375,218.4699663125,152.52517609375Q218.6110003125,152.48239609375,218.7555493125,152.45363609375Q218.9000983125,152.42488609375,219.0467693125,152.41044609375Q219.1934393125,152.39599609375,219.3408203125,152.39599609375Q219.4882013125,152.39599609375,219.6348713125,152.41044609375Q219.7815423125,152.42488609375,219.9260913125,152.45363609375Q220.0706403125,152.48239609375,220.2116743125,152.52517609375Q220.3527103125,152.56795609375,220.4888703125,152.62435609375Q220.6250303125,152.68075609375,220.7550103125,152.75023609375Q220.8849903125,152.81970609375,221.0075303125,152.90158609375Q221.1300703125,152.98346609375,221.2440003125,153.07696609375Q221.3579303125,153.17046609375,221.4621403125,153.27467609375Q221.5663503125,153.37888609375,221.6598503125,153.49281609375Q221.7533503125,153.60674609375,221.8352303125,153.72928609375Q221.9171103125,153.85182609375,221.9865803125,153.98180609375Q222.0560603125,154.11178609375,222.1124603125,154.24794609375Q222.1688603125,154.38410609375,222.2116403125,154.52514209375Q222.2544203125,154.66617609375,222.2831803125,154.81072509375Q222.3119303125,154.95527409375,222.3263703125,155.10194509375Q222.3408203125,155.24861509375,222.3408203125,155.39599609375Z" fill="#FFFFFF" fill-opacity="1"/></g><g style="mix-blend-mode:passthrough"><path d="M265.94482421875,143L234.94482421875,143L234.94482421875,137L265.94482421875,137L265.94482421875,143ZM268.94482421875,140Q268.94482421875,140.147381,268.93032421875,140.294051Q268.91592421875,140.440722,268.88722421875,140.585271Q268.85842421875,140.72982,268.81562421875003,140.870854Q268.77282421875,141.01189,268.71642421875,141.14805Q268.66002421875,141.28421,268.59062421875,141.41419Q268.52112421875,141.54417,268.43922421875,141.66671Q268.35732421875,141.78925,268.26382421875,141.90318Q268.17032421875,142.01711,268.06612421875,142.12132Q267.96192421875,142.22553,267.84802421874997,142.31903Q267.73402421875,142.41253,267.61152421875,142.49441Q267.48902421875,142.57629,267.35902421875,142.64576Q267.22902421875,142.71524,267.09282421875,142.77164Q266.95672421874997,142.82804,266.81572421875,142.87082Q266.67462421875,142.9136,266.53012421875,142.94236Q266.38552421875,142.97111,266.23892421875,142.98555Q266.09222421875,143,265.94482421875,143Q265.79742421875,143,265.65072421875,142.98555Q265.50412421875,142.97111,265.35952421875,142.94236Q265.21502421875,142.9136,265.07392421875,142.87082Q264.93292421875,142.82804,264.79672421875,142.77164Q264.66062421875,142.71524,264.53062421875,142.64576Q264.40062421875,142.57629,264.27812421875,142.49441Q264.15552421875,142.41253,264.04162421875003,142.31903Q263.92772421875,142.22553,263.82352421875,142.12132Q263.71932421875,142.01711,263.62582421875,141.90318Q263.53232421875,141.78925,263.45042421875,141.66671Q263.36852421875,141.54417,263.29902421875,141.41419Q263.22962421875,141.28421,263.17322421875,141.14805Q263.11682421875,141.01189,263.07402421875,140.870854Q263.03122421875,140.72982,263.00242421875,140.585271Q262.97372421875,140.440722,262.95922421875,140.294051Q262.94482421875,140.147381,262.94482421875,140Q262.94482421875,139.852619,262.95922421875,139.705949Q262.97372421875,139.559278,263.00242421875,139.414729Q263.03122421875,139.27018,263.07402421875,139.129146Q263.11682421875,138.98811,263.17322421875,138.85195Q263.22962421875,138.71579,263.29902421875,138.58581Q263.36852421875,138.45583,263.45042421875,138.33329Q263.53232421875,138.21075,263.62582421875,138.09682Q263.71932421875,137.98289,263.82352421875,137.87868Q263.92772421875,137.77447,264.04162421875003,137.68097Q264.15552421875,137.58747,264.27812421875,137.50559Q264.40062421875,137.42371,264.53062421875,137.35424Q264.66062421875,137.28476,264.79672421875,137.22836Q264.93292421875,137.17196,265.07392421875,137.12918Q265.21502421875,137.0864,265.35952421875,137.05764Q265.50412421875,137.02889,265.65072421875,137.01445Q265.79742421875,137,265.94482421875,137Q266.09222421875,137,266.23892421875,137.01445Q266.38552421875,137.02889,266.53012421875,137.05764Q266.67462421875,137.0864,266.81572421875,137.12918Q266.95672421874997,137.17196,267.09282421875,137.22836Q267.22902421875,137.28476,267.35902421875,137.35424Q267.48902421875,137.42371,267.61152421875,137.50559Q267.73402421875,137.58747,267.84802421874997,137.68097Q267.96192421875,137.77447,268.06612421875,137.87868Q268.17032421875,137.98289,268.26382421875,138.09682Q268.35732421875,138.21075,268.43922421875,138.33329Q268.52112421875,138.45583,268.59062421875,138.58581Q268.66002421875,138.71579,268.71642421875,138.85195Q268.77282421875,138.98811,268.81562421875003,139.129146Q268.85842421875,139.27018,268.88722421875,139.414729Q268.91592421875,139.559278,268.93032421875,139.705949Q268.94482421875,139.852619,268.94482421875,140ZM237.94482421875,140Q237.94482421875,140.147381,237.93037421875,140.294051Q237.91593421875,140.440722,237.88718421875,140.585271Q237.85842421875,140.72982,237.81564421875,140.870854Q237.77286421875,141.01189,237.71646421875,141.14805Q237.66006421875,141.28421,237.59058421875,141.41419Q237.52111421875,141.54417,237.43923421875,141.66671Q237.35735421875,141.78925,237.26385421875,141.90318Q237.17035421875,142.01711,237.06614421875,142.12132Q236.96193421875,142.22553,236.84800421875,142.31903Q236.73407421875,142.41253,236.61153421875,142.49441Q236.48899421875,142.57629,236.35901421875,142.64576Q236.22903421875,142.71524,236.09287421875,142.77164Q235.95671421875,142.82804,235.81567821875,142.87082Q235.67464421875,142.9136,235.53009521875,142.94236Q235.38554621875,142.97111,235.23887521875,142.98555Q235.09220521875,143,234.94482421875,143Q234.79744321875,143,234.65077321875,142.98555Q234.50410221875,142.97111,234.35955321875,142.94236Q234.21500421875,142.9136,234.07397021875,142.87082Q233.93293421875,142.82804,233.79677421875,142.77164Q233.66061421875,142.71524,233.53063421875,142.64576Q233.40065421875,142.57629,233.27811421875,142.49441Q233.15557421875,142.41253,233.04164421875,142.31903Q232.92771421875,142.22553,232.82350421875,142.12132Q232.71929421875,142.01711,232.62579421875,141.90318Q232.53229421875,141.78925,232.45041421875,141.66671Q232.36853421875,141.54417,232.29906421875,141.41419Q232.22958421875,141.28421,232.17318421875,141.14805Q232.11678421875,141.01189,232.07400421875,140.870854Q232.03122421875,140.72982,232.00246421875,140.585271Q231.97371421875,140.440722,231.95927421875,140.294051Q231.94482421875,140.147381,231.94482421875,140Q231.94482421875,139.852619,231.95927421875,139.705949Q231.97371421875,139.559278,232.00246421875,139.414729Q232.03122421875,139.27018,232.07400421875,139.129146Q232.11678421875,138.98811,232.17318421875,138.85195Q232.22958421875,138.71579,232.29906421875,138.58581Q232.36853421875,138.45583,232.45041421875,138.33329Q232.53229421875,138.21075,232.62579421875,138.09682Q232.71929421875,137.98289,232.82350421875,137.87868Q232.92771421875,137.77447,233.04164421875,137.68097Q233.15557421875,137.58747,233.27811421875,137.50559Q233.40065421875,137.42371,233.53063421875,137.35424Q233.66061421875,137.28476,233.79677421875,137.22836Q233.93293421875,137.17196,234.07397021875,137.12918Q234.21500421875,137.0864,234.35955321875,137.05764Q234.50410221875,137.02889,234.65077321875,137.01445Q234.79744321875,137,234.94482421875,137Q235.09220521875,137,235.23887521875,137.01445Q235.38554621875,137.02889,235.53009521875,137.05764Q235.67464421875,137.0864,235.81567821875,137.12918Q235.95671421875,137.17196,236.09287421875,137.22836Q236.22903421875,137.28476,236.35901421875,137.35424Q236.48899421875,137.42371,236.61153421875,137.50559Q236.73407421875,137.58747,236.84800421875,137.68097Q236.96193421875,137.77447,237.06614421875,137.87868Q237.17035421875,137.98289,237.26385421875,138.09682Q237.35735421875,138.21075,237.43923421875,138.33329Q237.52111421875,138.45583,237.59058421875,138.58581Q237.66006421875,138.71579,237.71646421875,138.85195Q237.77286421875,138.98811,237.81564421875,139.129146Q237.85842421875,139.27018,237.88718421875,139.414729Q237.91593421875,139.559278,237.93037421875,139.705949Q237.94482421875,139.852619,237.94482421875,140Z" transform="matrix(0,1,-1,0,374.94482421875,-94.94482421875)" fill="#FFFFFF" fill-opacity="1"/></g></g></g></g></g></svg>