<svg xmlns="http://www.w3.org/2000/svg" xmlns:xlink="http://www.w3.org/1999/xlink" fill="none" version="1.1" width="273.9998779296875" height="265.5431213378906" viewBox="0 0 273.9998779296875 265.5431213378906"><defs><filter id="master_svg0_1_21657" filterUnits="userSpaceOnUse" color-interpolation-filters="sRGB" x="-20.758913040161133" y="0" width="267.63020515441895" height="264.5966272354126"><feFlood flood-opacity="0" result="BackgroundImageFix"/><feBlend mode="normal" in="SourceGraphic" in2="BackgroundImageFix" result="shape"/><feGaussianBlur in="BackgroundImage" stdDeviation="10.379456520080566"/><feComposite in2="SourceAlpha" operator="in" result="effect1_foregroundBlur"/><feBlend mode="normal" in="SourceGraphic" in2="effect1_foregroundBlur" result="shape"/></filter><filter id="master_svg1_1_21659" filterUnits="userSpaceOnUse" color-interpolation-filters="sRGB" x="26.78960418701172" y="23.398515701293945" width="267.96931648254395" height="264.92879581451416"><feFlood flood-opacity="0" result="BackgroundImageFix"/><feBlend mode="normal" in="SourceGraphic" in2="BackgroundImageFix" result="shape"/><feGaussianBlur in="BackgroundImage" stdDeviation="10.379456520080566"/><feComposite in2="SourceAlpha" operator="in" result="effect1_foregroundBlur"/><feBlend mode="normal" in="SourceGraphic" in2="effect1_foregroundBlur" result="shape"/></filter><linearGradient x1="0" y1="0.14584580063819885" x2="1.0244438648223877" y2="1.0185296535491943" id="master_svg2_1_3265"><stop offset="0%" stop-color="#EA6E91" stop-opacity="1"/><stop offset="99.99995231628418%" stop-color="#E92E63" stop-opacity="1"/></linearGradient></defs><g style="mix-blend-mode:passthrough"><g><g filter="url(#master_svg0_1_21657)" style="mix-blend-mode:passthrough"><path d="M246.8712921142578,172.954C246.8712921142578,197.057,246.9200802142578,209.38,251.6749821142578,218.554C255.76771211425782,226.449,262.2344921142578,232.916,270.1301921142578,237.009C279.30329211425783,241.764,291.6272921142578,241.812,315.7300921142578,241.812L424.8832921142578,241.812C448.9862921142578,241.812,461.3102921142578,241.764,470.4832921142578,237.009C478.37929211425785,232.916,484.84629211425784,226.449,488.9392921142578,218.554C493.6942921142578,209.38,493.7422921142578,197.057,493.7422921142578,172.954L493.7422921142578,25.6002C493.7422921142578,17.4189,493.7192921142578,13.1876,492.0022921142578,11.1406C490.5742921142578,9.43841,488.4332921142578,8.42176,486.21129211425784,8.3917C483.5392921142578,8.35555,480.2472921142578,11.0129,473.90829211425785,16.1855L452.41629211425777,33.7237C447.86029211425785,37.4418,445.5692921142578,39.3094,443.0222921142578,40.6306C440.7722921142578,41.7979,438.3732921142578,42.6526,435.8912921142578,43.1709C433.0832921142578,43.7574,430.1272921142578,43.7589,424.2462921142578,43.7589L315.7300921142578,43.7589C291.6272921142578,43.7589,279.30329211425783,43.8077,270.1301921142578,48.5626C262.2344921142578,52.6554,255.76771211425782,59.1222,251.6749821142578,67.0178C246.9200821142578,76.191,246.8712921142578,88.5149,246.8712921142578,112.618L246.8712921142578,172.954Z" transform="matrix(-1,0,0,1,493.7425842285156,0)" fill="#E92E63" fill-opacity="1"/></g><g filter="url(#master_svg1_1_21659)" style="mix-blend-mode:passthrough"><path d="M26.78960418701172,136.07651570129394L26.78960418701172,196.68451570129395C26.78960418701172,220.78751570129396,26.838392287011718,233.11151570129394,31.59329418701172,242.28451570129394C35.68602418701172,250.17951570129395,42.15280418701172,256.64651570129394,50.048504187011716,260.73951570129395C59.22160418701172,265.49451570129395,71.54560418701172,265.5435157012939,95.64840418701172,265.5435157012939L205.14160418701172,265.5435157012939C229.24360418701173,265.5435157012939,241.5676041870117,265.49451570129395,250.74160418701172,260.73951570129395C258.6366041870117,256.64651570129394,265.1036041870117,250.17951570129395,269.19660418701176,242.28451570129394C273.95160418701175,233.11151570129394,273.99960418701176,220.78751570129396,273.99960418701176,196.68451570129395L273.99960418701176,48.998715701293946C273.99960418701176,40.817415701293946,273.97660418701173,36.58611570129395,272.25960418701175,34.539115701293944C270.83160418701175,32.83692570129394,268.69060418701173,31.820275701293944,266.4686041870117,31.790215701293945C263.79760418701176,31.754065701293946,260.50460418701175,34.41151570129394,254.16560418701172,39.58401570129395L232.60060418701173,57.182315701293945C228.0436041870117,60.900415701293944,225.7526041870117,62.76801570129395,223.20660418701172,64.08921570129394C220.95560418701172,65.25651570129395,218.55660418701171,66.11121570129394,216.07560418701172,66.62951570129394C213.26660418701172,67.21611570129394,210.3106041870117,67.21761570129394,204.4306041870117,67.21761570129394L95.64840418701172,67.21761570129394C71.54560418701172,67.21761570129394,59.22160418701172,67.26641570129394,50.048504187011716,72.02121570129395C42.15280418701172,76.11401570129394,35.68602418701172,82.58081570129394,31.59329418701172,90.47651570129395C26.83839608701172,99.64961570129394,26.78960418701172,111.97351570129395,26.78960418701172,136.07651570129394Z" fill="#E92E63" fill-opacity="0.699999988079071"/><path d="M254.6456041870117,40.17241570129394L233.08060418701172,57.770715701293945Q229.0856041870117,61.03091570129394,227.60560418701172,62.14191570129395Q225.36360418701173,63.825715701293944,223.5556041870117,64.76341570129395Q220.0726041870117,66.57061570129395,216.23060418701172,67.37291570129395Q214.23760418701173,67.78921570129395,211.4356041870117,67.90231570129394Q209.5856041870117,67.97701570129394,204.4306041870117,67.97701570129394L95.64840418701172,67.97701570129394Q84.52080418701172,67.97711570129394,79.65780418701172,68.05881570129395Q72.19180418701171,68.18441570129394,67.31320418701172,68.59311570129395Q61.80880418701172,69.05431570129394,57.83020418701172,70.00341570129395Q53.68270418701172,70.99291570129395,50.39800418701172,72.69551570129394Q44.580604187011716,75.71091570129394,39.93180418701172,80.35981570129394Q35.28300418701172,85.00861570129395,32.26756418701172,90.82601570129394Q30.56495418701172,94.11061570129395,29.575484187011718,98.25811570129395Q28.62631418701172,102.23671570129395,28.165184187011718,107.74121570129394Q27.75649118701172,112.61971570129394,27.63088818701172,120.08571570129395Q27.54907718701172,124.94851570129394,27.54907718701172,136.07651570129394L27.549076187011718,196.68451570129395Q27.54907718701172,207.81151570129396,27.63088718701172,212.67451570129396Q27.75648818701172,220.14051570129394,28.165184187011718,225.01951570129395Q28.62630418701172,230.52351570129395,29.575484187011718,234.50251570129396Q30.56495418701172,238.65051570129395,32.26756418701172,241.93451570129395Q35.28295418701172,247.75251570129396,39.93180418701172,252.40051570129395Q44.58070418701172,257.04951570129396,50.39800418701172,260.065515701294Q53.68280418701172,261.767515701294,57.83020418701172,262.757515701294Q61.80890418701172,263.70651570129394,67.31320418701172,264.16751570129395Q72.19220418701173,264.57651570129394,79.65780418701172,264.70151570129394Q84.52240418701172,264.78351570129394,95.64840418701172,264.78351570129394L205.14160418701172,264.78351570129394Q216.26760418701173,264.78351570129394,221.13160418701173,264.70151570129394Q228.5976041870117,264.57651570129394,233.47660418701173,264.16751570129395Q238.98060418701172,263.70651570129394,242.9596041870117,262.757515701294Q247.10660418701173,261.767515701294,250.39160418701172,260.065515701294Q256.2086041870117,257.04951570129396,260.8576041870117,252.40051570129395Q265.5066041870117,247.75151570129395,268.5216041870117,241.93451570129395Q270.2246041870117,238.64951570129395,271.21460418701173,234.50251570129396Q272.16360418701174,230.52351570129395,272.62460418701176,225.01951570129395Q273.03360418701175,220.14051570129394,273.15860418701175,212.67451570129396Q273.24060418701174,207.81051570129395,273.24060418701174,196.68451570129395L273.24060418701174,48.998715701293946Q273.24060418701174,41.90161570129395,273.0176041870117,39.53991570129395Q272.7076041870117,36.254915701293946,271.67760418701175,35.027115701293944Q270.7136041870117,33.877515701293945,269.33660418701174,33.22371570129395Q267.9586041870117,32.56992570129395,266.4586041870117,32.549615701293945Q264.8566041870117,32.52793570129394,262.11560418701174,34.364715701293946Q260.14460418701174,35.685115701293945,254.6456041870117,40.17241570129394ZM253.6856041870117,38.99561570129394Q259.2396041870117,34.46301570129395,261.26960418701174,33.10294570129395Q264.40360418701175,31.002725701293947,266.4786041870117,31.030815701293946Q268.3106041870117,31.055605701293945,269.9876041870117,31.851505701293945Q271.6646041870117,32.647435701293944,272.84160418701174,34.05101570129395Q274.1756041870117,35.641215701293945,274.5296041870117,39.397215701293945Q274.75960418701175,41.83011570129395,274.75960418701175,48.998715701293946L274.75960418701175,196.68451570129395Q274.75960418701175,207.82351570129396,274.67760418701175,212.70051570129394Q274.5506041870117,220.21651570129396,274.13760418701173,225.14651570129394Q273.6676041870117,230.76451570129396,272.6916041870117,234.85551570129394Q271.65860418701175,239.18351570129394,269.87060418701174,242.63351570129396Q266.7466041870117,248.65951570129394,261.9316041870117,253.47451570129394Q257.1166041870117,258.29051570129394,251.0906041870117,261.41351570129393Q247.64060418701172,263.2025157012939,243.3116041870117,264.23451570129396Q239.2216041870117,265.21051570129396,233.6036041870117,265.68151570129396Q228.6736041870117,266.094515701294,221.1576041870117,266.22051570129395Q216.27960418701173,266.30251570129394,205.14160418701172,266.30251570129394L95.64840418701172,266.30251570129394Q84.50960418701172,266.30251570129394,79.63220418701172,266.22051570129395Q72.11610418701173,266.094515701294,67.18640418701172,265.68151570129396Q61.56790418701172,265.21051570129396,57.47770418701172,264.23451570129396Q53.14920418701172,263.2025157012939,49.699004187011724,261.41351570129393Q43.67290418701172,258.2895157012939,38.857804187011716,253.47451570129394Q34.04264418701172,248.65951570129394,30.91902418701172,242.63351570129396Q29.13069418701172,239.18351570129394,28.098004187011718,234.85551570129394Q27.122231187011717,230.76451570129396,26.651539187011718,225.14651570129394Q26.23861118701172,220.21751570129393,26.112157187011718,212.70051570129394Q26.03013118701172,207.82451570129393,26.03013218701172,196.68451570129395L26.03013218701172,136.07651570129394Q26.03013218701172,124.93551570129395,26.11215818701172,120.06021570129394Q26.23861418701172,112.54351570129394,26.65154018701172,107.61441570129395Q27.12223418701172,101.99571570129395,28.098004187011718,97.90571570129394Q29.13070418701172,93.57701570129394,30.91901418701172,90.12691570129394Q34.04267418701172,84.10081570129395,38.857804187011716,79.28571570129395Q43.67280418701172,74.47061570129395,49.699004187011724,71.34701570129394Q53.14900418701172,69.55861570129395,57.47770418701172,68.52601570129394Q61.56780418701172,67.55021570129395,67.18640418701172,67.07951570129394Q72.11550418701171,66.66661570129395,79.63220418701172,66.54011570129394Q84.50790418701172,66.45811570129395,95.64840418701172,66.45811570129395L204.4306041870117,66.45811570129395Q209.5556041870117,66.45811570129395,211.37460418701173,66.38461570129394Q214.05060418701171,66.27661570129395,215.9196041870117,65.88601570129394Q219.55760418701172,65.12631570129395,222.85660418701173,63.415015701293946Q224.55160418701172,62.53541570129394,226.69360418701172,60.92731570129394Q228.14860418701173,59.834515701293945,232.11960418701173,56.593915701293945L253.6856041870117,38.99561570129394Z" fill="url(#master_svg2_1_3265)" fill-opacity="1"/></g><g style="mix-blend-mode:passthrough"><ellipse cx="83.42079162597656" cy="164.12871551513672" rx="20.346534729003906" ry="20.346534729003906" fill="#FFFFFF" fill-opacity="1"/></g><g style="mix-blend-mode:passthrough"><ellipse cx="218.04703521728516" cy="164.12871551513672" rx="20.346534729003906" ry="20.346534729003906" fill="#FFFFFF" fill-opacity="1"/></g><g style="mix-blend-mode:passthrough"><ellipse cx="150.3948097229004" cy="171.75867080688477" rx="12.37747573852539" ry="12.37747573852539" fill="#FFFFFF" fill-opacity="1"/></g></g></g></svg>